<?xml version="1.0" encoding="UTF-8"?>
<svg version="1.1" xmlns="http://www.w3.org/2000/svg" width="512" height="512">
<path d="M0 0 C168.96 0 337.92 0 512 0 C512 168.96 512 337.92 512 512 C343.04 512 174.08 512 0 512 C0 343.04 0 174.08 0 0 Z " fill="#F9F2EE" transform="translate(0,0)"/>
<path d="M0 0 C0.99 0.33 1.98 0.66 3 1 C3.49422991 14.03246264 2.96101792 25.54288566 -1 38 C-1.27328125 38.89203125 -1.5465625 39.7840625 -1.828125 40.703125 C-2.50588337 42.82292247 -3.23089776 44.91184607 -4 47 C-4.42152344 48.14662109 -4.42152344 48.14662109 -4.8515625 49.31640625 C-5.55801129 51.21457474 -6.27754824 53.10786444 -7 55 C-7.66 55 -8.32 55 -9 55 C-9.0825 55.53238281 -9.165 56.06476563 -9.25 56.61328125 C-12.08031157 65.62015818 -20.83690935 75.13928947 -28 81 C-28.66 81 -29.32 81 -30 81 C-30 81.66 -30 82.32 -30 83 C-44.23812384 93.50120762 -59.84335434 99.29066908 -77.5078125 99.2734375 C-79.73437994 99.29373602 -81.9609424 99.31458698 -84.1875 99.3359375 C-87.64945707 99.35843044 -91.11121563 99.37497658 -94.57324219 99.38085938 C-120.65485633 99.13398357 -120.65485633 99.13398357 -142.734375 111.68359375 C-143.15203125 112.11800781 -143.5696875 112.55242187 -144 113 C-142.47837214 117.13789618 -140.4606661 120.88773854 -138.25 124.6875 C-137.71113159 125.62203003 -137.71113159 125.62203003 -137.16137695 126.57543945 C-134.74139181 130.75982849 -132.26478235 134.90777054 -129.76171875 139.04296875 C-126.80594903 144.00420529 -123.9300444 149.01201212 -121.05224609 154.01879883 C-118.13096042 159.09099319 -115.13383073 164.09426407 -111.92578125 168.9921875 C-110.79371128 171.44739411 -110.82772815 173.32745832 -111 176 C-112.828125 175.77734375 -112.828125 175.77734375 -115 175 C-116.484375 173.00390625 -116.484375 173.00390625 -117.75 170.5625 C-118.39195312 169.35787109 -118.39195312 169.35787109 -119.046875 168.12890625 C-120 166 -120 166 -120 164 C-120.66 164 -121.32 164 -122 164 C-122.37125 163.05125 -122.7425 162.1025 -123.125 161.125 C-124.92690104 156.86833522 -127.33525379 153.04155542 -129.79296875 149.13671875 C-131 147 -131 147 -131 145 C-131.66 145 -132.32 145 -133 145 C-133.3403125 144.36835938 -133.680625 143.73671875 -134.03125 143.0859375 C-137.13207607 137.36260427 -140.30115655 131.6843105 -143.54492188 126.04077148 C-145.75682522 122.1878944 -147.94610332 118.32307253 -150.12109375 114.44921875 C-155.27805335 105.26907782 -160.43140058 96.11877567 -166.0234375 87.1953125 C-169.77657448 81.12798829 -173.3511333 74.95238623 -176.94384766 68.7890625 C-177.86999284 67.22022479 -178.82892146 65.67083618 -179.79296875 64.125 C-181 62 -181 62 -181 60 C-181.66 60 -182.32 60 -183 60 C-183.35191406 59.27296875 -183.70382812 58.5459375 -184.06640625 57.796875 C-187.33210856 51.14609745 -190.83808194 44.73459213 -194.6796875 38.3984375 C-196 36 -196 36 -196 34 C-199.86718513 36.79443292 -202.07654718 39.34850468 -204.359375 43.5234375 C-207.81149324 49.67940403 -211.48717562 55.65513914 -215.25 61.625 C-219.77276912 68.82830043 -224.27150591 76.04321969 -228.6875 83.3125 C-232.39696028 89.41485046 -236.17439991 95.46979605 -240 101.5 C-244.89768359 109.22031888 -249.69680315 116.99577111 -254.4453125 124.80859375 C-256.0925709 127.51817842 -257.75269922 130.21887162 -259.4296875 132.91015625 C-259.80254883 133.50973145 -260.17541016 134.10930664 -260.55957031 134.72705078 C-261.55060251 136.31806168 -262.54470857 137.90715676 -263.5390625 139.49609375 C-265.11281966 141.99686217 -265.11281966 141.99686217 -266 145 C-266.66 145 -267.32 145 -268 145 C-268.25394531 145.69996094 -268.50789062 146.39992187 -268.76953125 147.12109375 C-270.39156223 150.91613131 -272.55427319 154.26683927 -274.75292969 157.75073242 C-276.5612781 160.63507252 -278.31436105 163.52447448 -279.94140625 166.515625 C-280.53824219 167.60359375 -281.13507813 168.6915625 -281.75 169.8125 C-282.28109375 170.80894531 -282.8121875 171.80539062 -283.359375 172.83203125 C-283.90078125 173.54746094 -284.4421875 174.26289063 -285 175 C-286.32 175 -287.64 175 -289 175 C-288.41578451 171.10523008 -287.27413271 168.36687421 -285.25 165 C-284.30253906 163.42025391 -284.30253906 163.42025391 -283.3359375 161.80859375 C-282.55888704 160.53808538 -281.78008609 159.26864677 -281 158 C-280.31019043 156.87682373 -280.31019043 156.87682373 -279.60644531 155.73095703 C-278.03245593 153.17284126 -276.45447637 150.6172314 -274.875 148.0625 C-274.32666504 147.17506104 -273.77833008 146.28762207 -273.21337891 145.37329102 C-270.25518568 140.59823796 -267.26721606 135.84522048 -264.234375 131.1171875 C-263.62996582 130.16577881 -263.02555664 129.21437012 -262.40283203 128.23413086 C-261.23701651 126.40023677 -260.06121872 124.57264222 -258.87451172 122.75219727 C-258.08971436 121.51167603 -258.08971436 121.51167603 -257.2890625 120.24609375 C-256.82193848 119.52091553 -256.35481445 118.7957373 -255.87353516 118.04858398 C-254.81886152 116.03555807 -254.81886152 116.03555807 -255.22802734 113.83618164 C-256.25809151 111.38611441 -257.86684417 110.51385253 -260 109 C-260 108.34 -260 107.68 -260 107 C-276.79307746 100.04827747 -292.28835472 99.32618699 -310.3125 99.4375 C-340.08228287 99.57587083 -340.08228287 99.57587083 -350 95 C-350.84554443 94.61320068 -351.69108887 94.22640137 -352.56225586 93.82788086 C-354.85910996 92.70383925 -357.08540574 91.50568032 -359.3125 90.25 C-360.44075195 89.63318359 -360.44075195 89.63318359 -361.59179688 89.00390625 C-363.40038421 88.0132151 -365.20113037 87.00822872 -367 86 C-367 85.34 -367 84.68 -367 84 C-367.73992187 83.74605469 -368.47984375 83.49210937 -369.2421875 83.23046875 C-382.9288861 77.12379728 -393.01735274 57.78956695 -398.33984375 44.5234375 C-403.81738605 29.98485607 -404.56108961 16.46665079 -404 1 C-402.68 1 -401.36 1 -400 1 C-398.65533814 4.24542723 -397.3262825 7.49702334 -396 10.75 C-395.6184375 11.67039062 -395.236875 12.59078125 -394.84375 13.5390625 C-394.4828125 14.42851563 -394.121875 15.31796875 -393.75 16.234375 C-393.41484375 17.05131836 -393.0796875 17.86826172 -392.734375 18.70996094 C-392 21 -392 21 -392 25 C-391.34 25 -390.68 25 -390 25 C-389.70609375 25.66902344 -389.4121875 26.33804688 -389.109375 27.02734375 C-385.49466945 34.76572202 -381.04900007 41.45338527 -375.96386719 48.29858398 C-375.45243164 48.99540283 -374.94099609 49.69222168 -374.4140625 50.41015625 C-373.9495166 51.03027588 -373.4849707 51.65039551 -373.00634766 52.28930664 C-372 54 -372 54 -372 57 C-371.401875 57.28875 -370.80375 57.5775 -370.1875 57.875 C-368 59 -368 59 -365 61 C-365.30292969 60.48695313 -365.60585938 59.97390625 -365.91796875 59.4453125 C-372.57078825 47.28600548 -376.10104628 33.84871542 -375 20 C-371.16318326 20.54811668 -369.45491655 22.05113646 -367 25 C-365.40234375 27.98828125 -365.40234375 27.98828125 -363.9375 31.3125 C-363.17373047 33.03726563 -363.17373047 33.03726563 -362.39453125 34.796875 C-361.93433594 35.85390625 -361.47414063 36.9109375 -361 38 C-360.65324219 38.74765625 -360.30648437 39.4953125 -359.94921875 40.265625 C-358.45912514 43.5141703 -358 45.32157047 -358 49 C-357.34 49 -356.68 49 -356 49 C-354.88811864 50.74895933 -353.86193546 52.5526122 -352.875 54.375 C-347.01536576 64.63238035 -340.94583832 71.62316148 -331 78 C-330.34386719 78.51433594 -329.68773437 79.02867187 -329.01171875 79.55859375 C-326.7747747 81.16137502 -324.62250983 82.12308552 -322.0625 83.125 C-321.22847656 83.45757812 -320.39445312 83.79015625 -319.53515625 84.1328125 C-314.64590211 85.80525383 -310.22443558 86.13620941 -305.0625 86.125 C-303.28552734 86.12886719 -303.28552734 86.12886719 -301.47265625 86.1328125 C-298.22464257 86.0085915 -295.18796283 85.61325697 -292 85 C-292.34933594 84.14277344 -292.69867188 83.28554687 -293.05859375 82.40234375 C-296.54525432 73.64124482 -298.16463376 66.38412414 -298 57 C-296.35 56.67 -294.7 56.34 -293 56 C-289 62.75 -289 62.75 -289 65 C-288.34 65 -287.68 65 -287 65 C-285.4921875 66.64453125 -285.4921875 66.64453125 -283.875 68.8125 C-283.06675781 69.87404297 -283.06675781 69.87404297 -282.2421875 70.95703125 C-281 73 -281 73 -281 76 C-280.43152344 76.26167969 -279.86304688 76.52335937 -279.27734375 76.79296875 C-276.82354385 78.09352479 -274.77214092 79.63198052 -272.5625 81.3125 C-266.79284266 85.43122707 -260.64349433 87.6631895 -254 90 C-253.34 90.33 -252.68 90.66 -252 91 C-249.795636 91.22950319 -247.58607827 91.41075933 -245.375 91.5625 C-243.59222656 91.68818359 -243.59222656 91.68818359 -241.7734375 91.81640625 C-240.85820312 91.87699219 -239.94296875 91.93757813 -239 92 C-238.74476563 91.29875 -238.48953125 90.5975 -238.2265625 89.875 C-236.87024365 86.69585774 -235.21212277 83.92768569 -233.375 81 C-232.65743109 79.85033592 -231.93998683 78.70059404 -231.22265625 77.55078125 C-230.85543457 76.96506348 -230.48821289 76.3793457 -230.10986328 75.77587891 C-228.32717234 72.92341654 -226.57149803 70.05463342 -224.8125 67.1875 C-224.15636719 66.1253125 -223.50023437 65.063125 -222.82421875 63.96875 C-221.68950024 62.12209889 -220.56513801 60.26899149 -219.45703125 58.40625 C-218.3560405 56.57234165 -217.18651402 54.77977103 -216 53 C-215.34 53 -214.68 53 -214 53 C-213.938125 52.34 -213.87625 51.68 -213.8125 51 C-212.69621505 46.8783325 -210.66238434 43.34249498 -208 40 C-207.34 40 -206.68 40 -206 40 C-205.8453125 39.195625 -205.8453125 39.195625 -205.6875 38.375 C-204.81907303 35.37497956 -203.44379704 32.7620465 -202 30 C-201.34 30 -200.68 30 -200 30 C-199.67 28.68 -199.34 27.36 -199 26 C-198.01 26 -197.02 26 -196 26 C-194.79248047 27.50610352 -194.79248047 27.50610352 -193.6171875 29.62890625 C-193.17705322 30.40862793 -192.73691895 31.18834961 -192.28344727 31.99169922 C-191.81865967 32.84006348 -191.35387207 33.68842773 -190.875 34.5625 C-189.88257812 36.32742372 -188.88907688 38.09174091 -187.89453125 39.85546875 C-187.40291504 40.73380371 -186.91129883 41.61213867 -186.40478516 42.51708984 C-184.52255685 45.84386458 -182.55194007 49.11164032 -180.5625 52.375 C-176.35831159 59.31579566 -172.33705117 66.35790086 -168.33618164 73.41748047 C-167.38208162 75.098183 -166.42340246 76.77629504 -165.45996094 78.45166016 C-164.43837867 80.23481662 -163.43246242 82.02699812 -162.43847656 83.82568359 C-161.92381836 84.7327002 -161.40916016 85.6397168 -160.87890625 86.57421875 C-160.18970093 87.8111145 -160.18970093 87.8111145 -159.48657227 89.07299805 C-158.15979526 91.1293271 -158.15979526 91.1293271 -156.02661133 91.79370117 C-146.66351009 92.80946963 -133.39855689 86.1337474 -126.0078125 80.66796875 C-117.36581017 73.48871779 -112.13915477 65.84421199 -107 56 C-105.35 56.33 -103.7 56.66 -102 57 C-101.26189809 67.04638713 -103.85004078 75.55012234 -107 85 C-96.73058624 88.08835671 -85.66213007 86.0721621 -76 82 C-73.21827048 80.49735296 -70.56239339 78.91523229 -67.92578125 77.171875 C-66 76 -66 76 -64 76 C-64 75.34 -64 74.68 -64 74 C-62.91203302 73.0396716 -61.77658678 72.13303492 -60.625 71.25 C-51.6045407 63.55937751 -45.24955636 52.95938219 -41 42 C-40.34 42 -39.68 42 -39 42 C-38.88269531 41.13632813 -38.76539063 40.27265625 -38.64453125 39.3828125 C-37.99458528 35.97158091 -37.0114197 33.08027927 -35.6875 29.875 C-35.07455078 28.35519531 -35.07455078 28.35519531 -34.44921875 26.8046875 C-32.94477292 23.89311848 -31.54339995 22.05636591 -29 20 C-28.01 20 -27.02 20 -26 20 C-25.41171566 36.14513678 -29.69007565 48.30074441 -36 63 C-21.16928424 45.63284392 -8.87353637 26.76554329 -2.82421875 4.51171875 C-2 2 -2 2 0 0 Z " fill="#3D2B1A" transform="translate(454,103)"/>
<path d="M0 0 C1.32 0 2.64 0 4 0 C4.53367188 1.02996094 5.06734375 2.05992187 5.6171875 3.12109375 C9.98839701 11.49816979 14.50922517 19.74681529 19.37255859 27.84936523 C22.17502399 32.53124788 24.80662521 37.28896735 27.4050293 42.08691406 C29.03593194 45.06562681 30.70747777 48.0176019 32.39453125 50.96484375 C32.95720703 51.94904297 33.51988281 52.93324219 34.09960938 53.94726562 C35.25815656 55.96976933 36.41969955 57.99055943 37.58398438 60.00976562 C38.14021484 60.98494141 38.69644531 61.96011719 39.26953125 62.96484375 C40.02133667 64.27376587 40.02133667 64.27376587 40.78833008 65.60913086 C41.8891604 67.7812911 42.63324947 69.59783435 43 72 C41.26858507 73.73141493 39.04249956 73.11977579 36.73521423 73.12442017 C35.60449242 73.11902725 35.60449242 73.11902725 34.45092773 73.11352539 C33.26564987 73.11374443 33.26564987 73.11374443 32.056427 73.1139679 C29.43212178 73.11326857 26.80788664 73.10547527 24.18359375 73.09765625 C22.36898335 73.09579214 20.55437244 73.0943682 18.73976135 73.09336853 C13.9540977 73.08954279 9.1684642 73.07971204 4.3828125 73.06866455 C-0.49674064 73.05845163 -5.37629864 73.05387117 -10.25585938 73.04882812 C-19.83725286 73.03808982 -29.41862393 73.02101273 -39 73 C-38.36944459 68.82831519 -37.60260153 65.78082194 -35.48046875 62.12109375 C-34.95904297 61.21101563 -34.43761719 60.3009375 -33.90039062 59.36328125 C-33.33513672 58.39777344 -32.76988281 57.43226563 -32.1875 56.4375 C-31.60291016 55.42171875 -31.01832031 54.4059375 -30.41601562 53.359375 C-29.2046743 51.25553516 -27.98963814 49.15381858 -26.77099609 47.05419922 C-24.1584887 42.54875842 -21.5805141 38.02381071 -19 33.5 C-18.02605196 31.79817119 -17.05209349 30.09634835 -16.078125 28.39453125 C-10.68168301 18.95075777 -5.34367109 9.47369926 0 0 Z " fill="#F3EDE5" transform="translate(251,187)"/>
<path d="M0 0 C1.32 0 2.64 0 4 0 C3.44394144 3.55167449 2.59709967 6.04542571 0.62890625 9.046875 C0.14147949 9.80162109 -0.34594727 10.55636719 -0.84814453 11.33398438 C-1.63487549 12.52991211 -1.63487549 12.52991211 -2.4375 13.75 C-3.52958304 15.44126448 -4.61938124 17.13400624 -5.70703125 18.828125 C-6.53195068 20.11299805 -6.53195068 20.11299805 -7.37353516 21.42382812 C-10.32503442 26.09873359 -13.10048137 30.87498528 -15.87670898 35.65527344 C-17.52262052 38.48868889 -19.18162049 41.27243074 -21 44 C78.66 44 178.32 44 281 44 C277.04 36.08 277.04 36.08 273 28 C272.34 26.02 271.68 24.04 271 22 C270.34 22 269.68 22 269 22 C266.53621271 18.57212203 265.16565026 14.9291383 263.76171875 10.9921875 C262.94007839 8.73800793 262.94007839 8.73800793 261.3125 5.6875 C260 3 260 3 260 0 C261.32 0 262.64 0 264 0 C264 0.99 264 1.98 264 3 C264.66 3 265.32 3 266 3 C266.45890625 3.92941406 266.9178125 4.85882813 267.390625 5.81640625 C268.01001249 7.0653047 268.62983181 8.31398904 269.25 9.5625 C269.72771851 10.52615479 269.72771851 10.52615479 270.21508789 11.50927734 C271.85185146 14.78779589 273.53064158 17.99279573 275.4375 21.125 C277 24 277 24 277 28 C277.66 28 278.32 28 279 28 C280.15341698 30.22552258 281.29781159 32.45495969 282.4375 34.6875 C282.92573242 35.62625977 282.92573242 35.62625977 283.42382812 36.58398438 C285.16806982 40.01852216 286.60647569 43.14346175 287 47 C286 48 286 48 283.87524837 48.1241985 C282.92784615 48.12381878 281.98044392 48.12343906 281.00433254 48.12304783 C279.91552207 48.12503888 278.82671161 48.12702993 277.70490688 48.12908131 C276.49384385 48.12616847 275.28278083 48.12325563 274.03501892 48.12025452 C272.12263478 48.12153615 272.12263478 48.12153615 270.17161661 48.12284368 C266.61657372 48.12509104 263.06156067 48.12106409 259.50652158 48.11606562 C255.67896419 48.11176474 251.85140861 48.11320729 248.02384949 48.1139679 C241.38694291 48.11449336 234.75004613 48.1113442 228.11314201 48.10573006 C218.51718141 48.09761811 208.92122556 48.09500015 199.3252619 48.09374207 C183.75809834 48.09155106 168.19094001 48.08488968 152.6237793 48.07543945 C137.497803 48.06626658 122.37182812 48.05918514 107.24584961 48.05493164 C105.84832976 48.05453756 105.84832976 48.05453756 104.42257719 48.05413551 C99.74881761 48.05283051 95.07505801 48.05156679 90.4012984 48.05032361 C51.60086194 48.03994949 12.80043132 48.02232987 -26 48 C-27.10168457 44.25054932 -27.10168457 44.25054932 -26.18652344 41.99560547 C-25.74856445 41.29322754 -25.31060547 40.59084961 -24.859375 39.8671875 C-24.37082031 39.06941895 -23.88226563 38.27165039 -23.37890625 37.44970703 C-22.84136719 36.60005371 -22.30382812 35.75040039 -21.75 34.875 C-20.93595703 33.55604736 -20.93595703 33.55604736 -20.10546875 32.21044922 C-18.97427323 30.37881796 -17.83812241 28.55023863 -16.69726562 26.72460938 C-15.07709372 24.12375805 -13.47911528 21.51092027 -11.890625 18.890625 C-6.90790179 10.67457279 -6.90790179 10.67457279 -5.15234375 7.86035156 C-4.39618487 6.63960354 -3.65839956 5.4072413 -2.94140625 4.16308594 C-1.9375 2.4921875 -1.9375 2.4921875 0 0 Z " fill="#443022" transform="translate(124,339)"/>
<path d="M0 0 C0.82113281 -0.03738281 1.64226562 -0.07476562 2.48828125 -0.11328125 C8.80973858 -0.20344467 12.83272744 1.40749273 17.75 5.375 C22.30028808 10.36563854 22.09225836 15.59327692 22.02734375 22.0703125 C21.65026087 26.56344094 20.58527799 29.85474659 17.75 33.375 C11.81335712 38.10008311 7.19320074 38.57860063 -0.0625 38.625 C-0.85720703 38.645625 -1.65191406 38.66625 -2.47070312 38.6875 C-7.49506485 38.7207464 -10.89282027 38.14714783 -15.25 35.375 C-21.23476038 29.05775293 -21.69365815 23.13077508 -21.5703125 14.69921875 C-21.14154052 10.24940224 -20.29209254 8.58609769 -17.25 5.375 C-16.59 4.611875 -15.93 3.84875 -15.25 3.0625 C-10.98905048 -0.53267616 -5.3173457 0.0901245 0 0 Z " fill="#402E1E" transform="translate(282.25,286.625)"/>
<path d="M0 0 C1.08764648 -0.02416992 1.08764648 -0.02416992 2.19726562 -0.04882812 C8.34146776 -0.05434852 13.11118569 1.19244438 17.875 5.3125 C20.50068645 8.42442468 21.81531328 10.35338269 21.828125 14.40234375 C21.83199219 15.57893555 21.83199219 15.57893555 21.8359375 16.77929688 C21.82820313 17.59462891 21.82046875 18.40996094 21.8125 19.25 C21.82410156 20.46719727 21.82410156 20.46719727 21.8359375 21.70898438 C21.83335937 22.49466797 21.83078125 23.28035156 21.828125 24.08984375 C21.82586914 24.80390381 21.82361328 25.51796387 21.82128906 26.25366211 C21.36103946 29.91525161 19.96912006 31.92846994 17.3125 34.4375 C11.63346161 38.30957163 6.21597481 38.65244833 -0.4375 38.625 C-1.21867187 38.64111328 -1.99984375 38.65722656 -2.8046875 38.67382812 C-7.76468389 38.67800321 -11.13316833 38.02794071 -15.4375 35.3125 C-20.91319568 29.68881255 -20.81947517 23.5707654 -20.89501953 15.99145508 C-20.77122027 10.78614289 -19.63139337 7.67978492 -16.3359375 3.73046875 C-11.38931553 0.03576962 -5.91320054 -0.02614147 0 0 Z " fill="#3F2D1D" transform="translate(152.4375,286.6875)"/>
<path d="M0 0 C4.82625 -0.103125 9.6525 -0.20625 14.625 -0.3125 C16.13658691 -0.35802002 17.64817383 -0.40354004 19.20556641 -0.45043945 C30.26155688 -0.56518959 30.26155688 -0.56518959 33.8984375 2.39453125 C37.15457784 6.43141899 37.18552399 8.70617347 37.25 13.875 C37.27578125 15.10992187 37.3015625 16.34484375 37.328125 17.6171875 C36.98542488 21.1502625 36.52663427 22.55922223 34 25 C33.34 25 32.68 25 32 25 C32 25.66 32 26.32 32 27 C29.65147472 28.17426264 28.26225935 28.11508173 25.6484375 28.09765625 C24.79765625 28.09443359 23.946875 28.09121094 23.0703125 28.08789062 C21.73613281 28.07532227 21.73613281 28.07532227 20.375 28.0625 C19.4778125 28.05798828 18.580625 28.05347656 17.65625 28.04882812 C15.43747169 28.03702611 13.21872757 28.01909039 11 28 C11 30.97 11 33.94 11 37 C7.37 37 3.74 37 0 37 C0 24.79 0 12.58 0 0 Z " fill="#3F2D1D" transform="translate(218,287)"/>
<path d="M0 0 C1.41829102 0.0009668 1.41829102 0.0009668 2.86523438 0.00195312 C7.00131567 0.02826036 10.39007538 0.17564384 14.4375 1.1875 C14.4375 4.1575 14.4375 7.1275 14.4375 10.1875 C6.8475 9.8575 -0.7425 9.5275 -8.5625 9.1875 C-8.2325 10.8375 -7.9025 12.4875 -7.5625 14.1875 C-6.16837891 14.24357422 -6.16837891 14.24357422 -4.74609375 14.30078125 C9.24038182 15.04458756 9.24038182 15.04458756 15.1015625 19.43359375 C17.00659343 21.93464313 16.73435752 23.77653689 16.625 26.875 C16.58439453 28.36580078 16.58439453 28.36580078 16.54296875 29.88671875 C16.50816406 30.64597656 16.47335937 31.40523438 16.4375 32.1875 C15.7775 32.1875 15.1175 32.1875 14.4375 32.1875 C14.1075 33.1775 13.7775 34.1675 13.4375 35.1875 C8.16162377 38.85320621 3.09942246 38.57500455 -3.0625 38.4375 C-3.98675781 38.43234375 -4.91101563 38.4271875 -5.86328125 38.421875 C-10.52955963 38.36846981 -14.97488643 38.13560681 -19.5625 37.1875 C-19.5625 34.2175 -19.5625 31.2475 -19.5625 28.1875 C-11.3125 28.1875 -3.0625 28.1875 5.4375 28.1875 C5.4375 27.1975 5.4375 26.2075 5.4375 25.1875 C1.52271829 23.23010914 -3.4490005 23.88541649 -7.765625 23.76171875 C-12.05193064 23.11348117 -14.22149454 21.90083135 -17.5625 19.1875 C-20.25023977 15.15589035 -20.23665933 11.92326122 -19.5625 7.1875 C-15.05166079 -0.66470159 -8.12286147 -0.10563612 0 0 Z " fill="#402E1E" transform="translate(386.5625,286.8125)"/>
<path d="M0 0 C1.32 0 2.64 0 4 0 C4.53367188 1.02996094 5.06734375 2.05992187 5.6171875 3.12109375 C9.98839701 11.49816979 14.50922517 19.74681529 19.37255859 27.84936523 C22.17502399 32.53124788 24.80662521 37.28896735 27.4050293 42.08691406 C29.03593194 45.06562681 30.70747777 48.0176019 32.39453125 50.96484375 C32.95720703 51.94904297 33.51988281 52.93324219 34.09960938 53.94726562 C35.25815656 55.96976933 36.41969955 57.99055943 37.58398438 60.00976562 C38.14021484 60.98494141 38.69644531 61.96011719 39.26953125 62.96484375 C40.02133667 64.27376587 40.02133667 64.27376587 40.78833008 65.60913086 C41.8891604 67.7812911 42.63324947 69.59783435 43 72 C41.26858507 73.73141493 39.04249956 73.11977579 36.73521423 73.12442017 C35.60449242 73.11902725 35.60449242 73.11902725 34.45092773 73.11352539 C33.26564987 73.11374443 33.26564987 73.11374443 32.056427 73.1139679 C29.43212178 73.11326857 26.80788664 73.10547527 24.18359375 73.09765625 C22.36898335 73.09579214 20.55437244 73.0943682 18.73976135 73.09336853 C13.9540977 73.08954279 9.1684642 73.07971204 4.3828125 73.06866455 C-0.49674064 73.05845163 -5.37629864 73.05387117 -10.25585938 73.04882812 C-19.83725286 73.03808982 -29.41862393 73.02101273 -39 73 C-38.36944459 68.82831519 -37.60260153 65.78082194 -35.48046875 62.12109375 C-34.95904297 61.21101563 -34.43761719 60.3009375 -33.90039062 59.36328125 C-33.33513672 58.39777344 -32.76988281 57.43226563 -32.1875 56.4375 C-31.60291016 55.42171875 -31.01832031 54.4059375 -30.41601562 53.359375 C-29.2046743 51.25553516 -27.98963814 49.15381858 -26.77099609 47.05419922 C-24.1584887 42.54875842 -21.5805141 38.02381071 -19 33.5 C-18.02605196 31.79817119 -17.05209349 30.09634835 -16.078125 28.39453125 C-10.68168301 18.95075777 -5.34367109 9.47369926 0 0 Z M1 5 C-0.18044671 6.51580177 -0.18044671 6.51580177 -1.27734375 8.5078125 C-1.92413086 9.61769531 -1.92413086 9.61769531 -2.58398438 10.75 C-3.03064453 11.53375 -3.47730469 12.3175 -3.9375 13.125 C-4.38029297 13.88554687 -4.82308594 14.64609375 -5.27929688 15.4296875 C-7.07272761 18.53010427 -8.81400061 21.6228057 -10.3984375 24.8359375 C-12.93731795 29.85177449 -15.83928611 34.65487922 -18.6875 39.5 C-19.94427899 41.64958258 -21.20079057 43.79932153 -22.45703125 45.94921875 C-24.11327196 48.78000467 -25.77037414 51.61020639 -27.43505859 54.43603516 C-28.58712843 56.39175047 -29.73204264 58.35145132 -30.875 60.3125 C-31.49117187 61.36050781 -32.10734375 62.40851563 -32.7421875 63.48828125 C-34.22388487 65.97889763 -34.22388487 65.97889763 -34 69 C-10.24 69 13.52 69 38 69 C36.56455253 65.41138131 35.15312473 62.29519392 33.30078125 58.94921875 C32.7692041 57.98677246 32.23762695 57.02432617 31.68994141 56.03271484 C30.85342041 54.531521 30.85342041 54.531521 30 53 C29.4539209 52.01854004 28.9078418 51.03708008 28.34521484 50.02587891 C26.63042627 46.95223895 24.90987387 43.88189528 23.1875 40.8125 C22.58019043 39.72912354 21.97288086 38.64574707 21.34716797 37.52954102 C16.5729954 29.01507299 11.79115038 20.50492567 7 12 C6.34 12 5.68 12 5 12 C4.34 9.69 3.68 7.38 3 5 C2.34 5 1.68 5 1 5 Z " fill="#4F4538" transform="translate(251,187)"/>
<path d="M0 0 C1.9453125 0.03515625 1.9453125 0.03515625 4 1 C5.4921875 3.37109375 5.4921875 3.37109375 6.875 6.4375 C9.58687212 12.20365234 12.66177526 17.58007332 16 23 C20 29.54320988 20 29.54320988 20 33 C7.46 33 -5.08 33 -18 33 C-17.02349323 28.11746613 -15.39956315 24.9789251 -12.8125 20.875 C-11.99292482 19.54672299 -11.17522854 18.2172849 -10.359375 16.88671875 C-9.95783203 16.2323584 -9.55628906 15.57799805 -9.14257812 14.90380859 C-7.02096842 11.36869909 -5.10633229 7.72403504 -3.19140625 4.07421875 C-2 2 -2 2 0 0 Z " fill="#3C2A19" transform="translate(252,215)"/>
<path d="M0 0 C0.99 0 1.98 0 3 0 C4.20751953 1.50610352 4.20751953 1.50610352 5.3828125 3.62890625 C5.82294678 4.40862793 6.26308105 5.18834961 6.71655273 5.99169922 C7.18134033 6.84006348 7.64612793 7.68842773 8.125 8.5625 C9.11742188 10.32742372 10.11092312 12.09174091 11.10546875 13.85546875 C11.84289307 15.17297119 11.84289307 15.17297119 12.59521484 16.51708984 C14.47744315 19.84386458 16.44805993 23.11164032 18.4375 26.375 C22.64168841 33.31579566 26.66294883 40.35790086 30.66381836 47.41748047 C31.61798815 49.0983059 32.5766688 50.77657932 33.54003906 52.45214844 C34.56106343 54.23398962 35.56703913 56.02450034 36.56152344 57.82128906 C37.07618164 58.72717773 37.59083984 59.63306641 38.12109375 60.56640625 C38.81029907 61.80112671 38.81029907 61.80112671 39.51342773 63.06079102 C41.23956892 65.3125137 42.10541777 65.73132392 44.875 66.125 C45.90625 66.08375 46.9375 66.0425 48 66 C48 66.33 48 66.66 48 67 C44 67 40 67 36 67 C35.30777344 65.77990234 35.30777344 65.77990234 34.6015625 64.53515625 C33.94929688 63.38917969 33.29703125 62.24320313 32.625 61.0625 C32.27501953 60.44729492 31.92503906 59.83208984 31.56445312 59.19824219 C29.4893883 55.56416269 27.38435431 51.95044681 25.2421875 48.35546875 C24.78634277 47.58904053 24.33049805 46.8226123 23.86083984 46.03295898 C22.96122039 44.5237481 22.0579576 43.01670237 21.15087891 41.51196289 C18 36.22073607 18 36.22073607 18 34 C17.34 34 16.68 34 16 34 C15.64808594 33.27296875 15.29617188 32.5459375 14.93359375 31.796875 C11.66789144 25.14609745 8.16191806 18.73459213 4.3203125 12.3984375 C3 10 3 10 3 8 C-0.86718513 10.79443292 -3.07654718 13.34850468 -5.359375 17.5234375 C-8.81149411 23.67940557 -12.48718196 29.65513019 -16.25 35.625 C-22.57759107 45.70359275 -28.82272775 55.82869102 -35 66 C-35.99 65.01 -36.98 64.02 -38 63 C-36.58037838 59.12252603 -34.75853871 55.80516032 -32.5625 52.3125 C-31.85208269 51.18017768 -31.14249786 50.04733279 -30.43359375 48.9140625 C-30.04800293 48.29821289 -29.66241211 47.68236328 -29.26513672 47.04785156 C-27.85267776 44.76153242 -26.47359918 42.45690867 -25.09765625 40.1484375 C-24.60515381 39.32690186 -24.11265137 38.50536621 -23.60522461 37.65893555 C-22.6253995 36.02298476 -21.6508649 34.38385263 -20.68188477 32.74145508 C-20.23256592 31.99532959 -19.78324707 31.2492041 -19.3203125 30.48046875 C-18.92086426 29.80910889 -18.52141602 29.13774902 -18.10986328 28.44604492 C-17.7436084 27.9688501 -17.37735352 27.49165527 -17 27 C-16.34 27 -15.68 27 -15 27 C-14.9071875 26.01 -14.9071875 26.01 -14.8125 25 C-13.69621505 20.8783325 -11.66238434 17.34249498 -9 14 C-8.34 14 -7.68 14 -7 14 C-6.896875 13.46375 -6.79375 12.9275 -6.6875 12.375 C-5.81907303 9.37497956 -4.44379704 6.7620465 -3 4 C-2.34 4 -1.68 4 -1 4 C-0.67 2.68 -0.34 1.36 0 0 Z " fill="#4A3B2C" transform="translate(255,129)"/>
<path d="M0 0 C3.3 0 6.6 0 10 0 C10 8.91 10 17.82 10 27 C18.25 27 26.5 27 35 27 C35 29.97 35 32.94 35 36 C23.45 36 11.9 36 0 36 C0 24.12 0 12.24 0 0 Z " fill="#402E1E" transform="translate(310,288)"/>
<path d="M0 0 C3.03333605 -0.22893102 5.97366814 -0.35414522 9 0 C11.0625 1.875 11.0625 1.875 12 4 C12 4.66 12 5.32 12 6 C12.66 6 13.32 6 14 6 C15.32 8.31 16.64 10.62 18 13 C19.92275526 10.72117895 21.71865647 8.57873326 23.02734375 5.88671875 C24.18460686 3.56807415 25.1447927 1.81978568 27 0 C30.42750842 -0.68971368 33.55266012 -0.4819582 37 0 C36.70966544 4.66349887 34.4765625 7.2084516 31.69433594 10.72485352 C24.786744 19.49072703 22.15001826 25.77043349 23 37 C19.7 37 16.4 37 13 37 C13.020625 35.97261719 13.04125 34.94523437 13.0625 33.88671875 C13.00823613 24.72830568 11.91015753 19.24696711 5.71484375 12.0390625 C4 10 4 10 4 8 C3.34 8 2.68 8 2 8 C0.23537317 4.91190305 0 3.76687864 0 0 Z " fill="#423020" transform="translate(177,288)"/>
<path d="M0 0 C3.3 0 6.6 0 10 0 C10.09903473 4.48398784 10.17154483 8.96739292 10.21972656 13.45214844 C10.23981599 14.97700085 10.26709316 16.50177648 10.30175781 18.02636719 C10.35039796 20.22089598 10.37299396 22.41440469 10.390625 24.609375 C10.41157227 25.92905273 10.43251953 27.24873047 10.45410156 28.60839844 C10 32 10 32 8.12280273 34.38427734 C3.74768857 37.71429523 0.117875 38.2443489 -5.3125 38.125 C-6.38113281 38.10695313 -7.44976562 38.08890625 -8.55078125 38.0703125 C-9.76314453 38.03550781 -9.76314453 38.03550781 -11 38 C-11 35.03 -11 32.06 -11 29 C-7.7 28.67 -4.4 28.34 -1 28 C-0.67 18.76 -0.34 9.52 0 0 Z " fill="#433121" transform="translate(115,287)"/>
<path d="M0 0 C1.11246094 0.00128906 2.22492188 0.00257813 3.37109375 0.00390625 C6.84357265 0.47568735 8.7657995 1.36154627 11.5625 3.4375 C13.4342954 7.1810908 13.08095196 11.36029139 12.5625 15.4375 C10.875 18.5625 10.875 18.5625 7.5625 20.4375 C1.68429846 21.34068077 -3.46317269 21.5177923 -8.75 18.625 C-11.17705261 14.04056729 -11.53488059 9.51572329 -10.4375 4.4375 C-7.47266141 0.23849415 -4.99440574 -0.08660819 0 0 Z " fill="#F0EAE3" transform="translate(281.4375,295.5625)"/>
<path d="M0 0 C1.216875 -0.0309375 2.43375 -0.061875 3.6875 -0.09375 C7 0.5 7 0.5 9.40234375 2.68359375 C11.14799878 5.76089761 11.56738517 7.55006291 11.5625 11.0625 C11.58441406 11.99191406 11.60632813 12.92132813 11.62890625 13.87890625 C11 16.5 11 16.5 8.875 18.80859375 C5.46413798 20.81525578 3.37294703 21.03648155 -0.5625 21 C-1.67753906 21.0103125 -2.79257813 21.020625 -3.94140625 21.03125 C-7 20.5 -7 20.5 -9.37109375 18.87890625 C-11.50900553 15.75663221 -11.53422509 13.69798212 -11.5 9.9375 C-11.5103125 8.80183594 -11.520625 7.66617187 -11.53125 6.49609375 C-11 3.5 -11 3.5 -9.40625 1.62890625 C-6.17450213 0.11271285 -3.5624512 0.03019026 0 0 Z " fill="#F5EFE9" transform="translate(153,295.5)"/>
<path d="M0 0 C0.99 0 1.98 0 3 0 C3.39771606 0.7281189 3.39771606 0.7281189 3.8034668 1.47094727 C5.09647234 3.83571747 6.39168927 6.19926573 7.6875 8.5625 C8.17138184 9.44550781 8.65526367 10.32851562 9.15380859 11.23828125 C11.92772685 16.28401125 14.7348217 21.30825959 17.58984375 26.30859375 C18.17870361 27.34105225 18.76756348 28.37351074 19.37426758 29.43725586 C20.52751951 31.45476324 21.68481293 33.4699666 22.84643555 35.48266602 C23.37406494 36.40619873 23.90169434 37.32973145 24.4453125 38.28125 C24.91469238 39.09658203 25.38407227 39.91191406 25.86767578 40.75195312 C26.93210709 42.8652096 27.63309079 44.6657094 28 47 C26.26858507 48.73141493 24.04249956 48.11977579 21.73521423 48.12442017 C20.60449242 48.11902725 20.60449242 48.11902725 19.45092773 48.11352539 C18.26564987 48.11374443 18.26564987 48.11374443 17.056427 48.1139679 C14.43212178 48.11326857 11.80788664 48.10547527 9.18359375 48.09765625 C7.36898335 48.09579214 5.55437244 48.0943682 3.73976135 48.09336853 C-1.0459023 48.08954279 -5.8315358 48.07971204 -10.6171875 48.06866455 C-15.49674064 48.05845163 -20.37629864 48.05387117 -25.25585938 48.04882812 C-34.83725286 48.03808982 -44.41862393 48.02101273 -54 48 C-54 47.67 -54 47.34 -54 47 C-28.59 47 -3.18 47 23 47 C23 46.34 23 45.68 23 45 C-1.09 45 -25.18 45 -50 45 C-49.67 44.34 -49.34 43.68 -49 43 C-25.24 43.33 -1.48 43.66 23 44 C18.39919443 35.54415851 18.39919443 35.54415851 13.7109375 27.140625 C13.16179687 26.16996094 12.61265625 25.19929688 12.046875 24.19921875 C11.49515625 23.22597656 10.9434375 22.25273437 10.375 21.25 C9.81554687 20.26128906 9.25609375 19.27257812 8.6796875 18.25390625 C8.133125 17.28839844 7.5865625 16.32289063 7.0234375 15.328125 C6.50491211 14.40966797 5.98638672 13.49121094 5.45214844 12.54492188 C4.55349088 10.97000486 3.64244662 9.40199943 2.71191406 7.84570312 C0 3.29960972 0 3.29960972 0 0 Z " fill="#77695C" transform="translate(266,212)"/>
<path d="M0 0 C2.97 0 5.94 0 9 0 C9 11.88 9 23.76 9 36 C6.03 36 3.06 36 0 36 C0 24.12 0 12.24 0 0 Z " fill="#3C2818" transform="translate(351,288)"/>
<path d="M0 0 C0.66 0 1.32 0 2 0 C2 0.66 2 1.32 2 2 C3.32 1.67 4.64 1.34 6 1 C6.65226562 2.11117187 7.30453125 3.22234375 7.9765625 4.3671875 C13.41622708 13.64535006 13.41622708 13.64535006 18.9375 22.875 C22.35546007 28.54238678 25.65016786 34.28181597 28.94824219 40.01953125 C31.86927878 45.0915313 34.8663308 50.09451069 38.07421875 54.9921875 C39.20628872 57.44739411 39.17227185 59.32745832 39 62 C37.171875 61.77734375 37.171875 61.77734375 35 61 C33.515625 59.00390625 33.515625 59.00390625 32.25 56.5625 C31.82203125 55.75941406 31.3940625 54.95632813 30.953125 54.12890625 C30 52 30 52 30 50 C29.34 50 28.68 50 28 50 C27.62875 49.05125 27.2575 48.1025 26.875 47.125 C25.07309896 42.86833522 22.66474621 39.04155542 20.20703125 35.13671875 C19 33 19 33 19 31 C18.34 31 17.68 31 17 31 C16.6596875 30.36835938 16.319375 29.73671875 15.96875 29.0859375 C12.35599246 22.41770949 8.62743164 15.82693796 4.83203125 9.26171875 C3.12139724 6.21613368 1.53335215 3.13791261 0 0 Z " fill="#4E3E30" transform="translate(304,217)"/>
<path d="M0 0 C1.66666667 0 3.33333333 0 5 0 C3.27087041 5.0850734 0.3947126 9.41408352 -2.4375 13.9375 C-5.51673835 18.86994618 -8.50976283 23.74095675 -11 29 C-11.66 29 -12.32 29 -13 29 C-13.25394531 29.69996094 -13.50789063 30.39992187 -13.76953125 31.12109375 C-15.39156223 34.91613131 -17.55427319 38.26683927 -19.75292969 41.75073242 C-21.5612781 44.63507252 -23.31436105 47.52447448 -24.94140625 50.515625 C-25.53824219 51.60359375 -26.13507813 52.6915625 -26.75 53.8125 C-27.28109375 54.80894531 -27.8121875 55.80539062 -28.359375 56.83203125 C-29.17148438 57.90517578 -29.17148438 57.90517578 -30 59 C-31.32 59 -32.64 59 -34 59 C-33.41578451 55.10523008 -32.27413271 52.36687421 -30.25 49 C-29.61835938 47.94683594 -28.98671875 46.89367187 -28.3359375 45.80859375 C-27.55888704 44.53808538 -26.78008609 43.26864677 -26 42 C-25.54012695 41.25121582 -25.08025391 40.50243164 -24.60644531 39.73095703 C-21.91796096 35.36151571 -19.2145409 31.00173376 -16.5 26.6484375 C-14.09053118 22.7778212 -11.72091917 18.88600646 -9.375 14.9765625 C-8.7886377 14.00710693 -8.20227539 13.03765137 -7.59814453 12.03881836 C-6.46549815 10.16460795 -5.34120121 8.28532155 -4.22607422 6.40063477 C-3.7157666 5.56072998 -3.20545898 4.7208252 -2.6796875 3.85546875 C-2.23351074 3.10934326 -1.78733398 2.36321777 -1.32763672 1.59448242 C-0.8895166 1.06830322 -0.45139648 0.54212402 0 0 Z " fill="#4B3B2D" transform="translate(199,219)"/>
<path d="M0 0 C1.32 0 2.64 0 4 0 C3.44394144 3.55167449 2.59709967 6.04542571 0.62890625 9.046875 C0.14164063 9.80178223 -0.345625 10.55668945 -0.84765625 11.33447266 C-1.37230469 12.13159668 -1.89695312 12.9287207 -2.4375 13.75 C-5.69474422 18.77191108 -8.92250085 23.78569221 -11.87890625 28.9921875 C-12.32242432 29.77239258 -12.76594238 30.55259766 -13.22290039 31.35644531 C-14.05930436 32.84217761 -14.88573496 34.33357921 -15.70092773 35.83105469 C-18.54976703 40.86779769 -18.54976703 40.86779769 -20.94726562 41.57177734 C-21.62466797 41.71309082 -22.30207031 41.8544043 -23 42 C-23.99 42.66 -24.98 43.32 -26 44 C-24.48130252 39.8058769 -22.38340658 36.1007336 -20.0625 32.3125 C-19.67425049 31.67256104 -19.28600098 31.03262207 -18.88598633 30.37329102 C-18.04393412 28.9870362 -17.20003093 27.60190441 -16.35449219 26.21777344 C-14.93272937 23.88985464 -13.51688446 21.55840207 -12.1015625 19.2265625 C-11.13052882 17.63001336 -10.15918014 16.03365577 -9.1875 14.4375 C-8.73189697 13.68831299 -8.27629395 12.93912598 -7.80688477 12.16723633 C-6.94402183 10.7548601 -6.0755706 9.34587768 -5.20068359 7.94091797 C-4.42426647 6.68583132 -3.66538745 5.41964921 -2.92822266 4.14111328 C-1.92578125 2.47265625 -1.92578125 2.47265625 0 0 Z " fill="#4C3D30" transform="translate(124,339)"/>
<path d="M0 0 C1.32 0 2.64 0 4 0 C4 0.99 4 1.98 4 3 C4.66 3 5.32 3 6 3 C6.45890625 3.92941406 6.9178125 4.85882813 7.390625 5.81640625 C8.01001249 7.0653047 8.62983181 8.31398904 9.25 9.5625 C9.568479 10.20493652 9.88695801 10.84737305 10.21508789 11.50927734 C11.85185146 14.78779589 13.53064158 17.99279573 15.4375 21.125 C17 24 17 24 17 28 C17.66 28 18.32 28 19 28 C24.2166302 36.85776805 24.2166302 36.85776805 23.3125 41.625 C22.879375 42.40875 22.44625 43.1925 22 44 C19.66795391 41.86958607 18.29114319 39.9142326 16.95703125 37.05859375 C16.60576172 36.31029297 16.25449219 35.56199219 15.89257812 34.79101562 C15.53615234 34.01435547 15.17972656 33.23769531 14.8125 32.4375 C14.44447266 31.65697266 14.07644531 30.87644531 13.69726562 30.07226562 C11 24.2723939 11 24.2723939 11 22 C10.34 22 9.68 22 9 22 C6.53621271 18.57212203 5.16565026 14.9291383 3.76171875 10.9921875 C2.94007839 8.73800793 2.94007839 8.73800793 1.3125 5.6875 C0 3 0 3 0 0 Z " fill="#4D3D2F" transform="translate(384,339)"/>
<path d="M0 0 C5.61 0 11.22 0 17 0 C17.33 0.99 17.66 1.98 18 3 C18.6496875 2.2575 18.6496875 2.2575 19.3125 1.5 C21 0 21 0 24 0 C23.01 3.3 22.02 6.6 21 10 C20.01 10 19.02 10 18 10 C17.34 8.02 16.68 6.04 16 4 C15.34 5.98 14.68 7.96 14 10 C9 10 4 10 -1 10 C-1 9.34 -1 8.68 -1 8 C-0.01 8 0.98 8 2 8 C2 6.02 2 4.04 2 2 C1.34 2 0.68 2 0 2 C0 1.34 0 0.68 0 0 Z " fill="#7E6F5F" transform="translate(277,355)"/>
<path d="M0 0 C2.45840605 -0.02691685 4.91651882 -0.04679802 7.375 -0.0625 C8.07367188 -0.07087891 8.77234375 -0.07925781 9.4921875 -0.08789062 C14.7734375 -0.11328125 14.7734375 -0.11328125 17 1 C17.125 4.375 17.125 4.375 17 8 C15 10 15 10 11.5234375 10.1953125 C10.14049032 10.18201493 8.75761346 10.15816232 7.375 10.125 C6.66859375 10.11597656 5.9621875 10.10695313 5.234375 10.09765625 C3.48943902 10.07407603 1.74467705 10.03820461 0 10 C0 6.7 0 3.4 0 0 Z " fill="#EDE6DD" transform="translate(228,296)"/>
<path d="M0 0 C0.66 0.33 1.32 0.66 2 1 C4.30724017 1.12120299 6.61796828 1.1775357 8.92822266 1.20532227 C9.99667671 1.22017166 9.99667671 1.22017166 11.0867157 1.23532104 C13.44579726 1.26695858 15.80489897 1.2917023 18.1640625 1.31640625 C19.79788747 1.33697384 21.43170708 1.35797026 23.06552124 1.37937927 C27.36942216 1.43462013 31.67337126 1.4840205 35.97735596 1.53222656 C40.36776018 1.5824269 44.75809429 1.63812061 49.1484375 1.69335938 C57.76556575 1.80096558 66.38275258 1.90240506 75 2 C75 2.66 75 3.32 75 4 C49.59 4 24.18 4 -2 4 C-2 3.01 -2 2.02 -2 1 C-1.34 0.67 -0.68 0.34 0 0 Z " fill="#382819" transform="translate(214,255)"/>
<path d="M0 0 C3.96 0 7.92 0 12 0 C12.33 0.99 12.66 1.98 13 3 C13.33 2.01 13.66 1.02 14 0 C14.99 0 15.98 0 17 0 C17 3.3 17 6.6 17 10 C16.01 10 15.02 10 14 10 C13.34 9.01 12.68 8.02 12 7 C11.67 7.99 11.34 8.98 11 10 C7.37 10 3.74 10 0 10 C0 6.7 0 3.4 0 0 Z " fill="#968777" transform="translate(215,355)"/>
<path d="M0 0 C-1.45351912 4.94961512 -3.56774124 9.12487212 -6.125 13.5625 C-6.52025879 14.2534375 -6.91551758 14.944375 -7.32275391 15.65625 C-8.54114217 17.77518611 -9.76991934 19.88783501 -11 22 C-11.57137695 22.99362549 -11.57137695 22.99362549 -12.15429688 24.00732422 C-13.21512824 25.84606751 -14.29162725 27.67446822 -15.375 29.5 C-16.31472656 31.09328125 -16.31472656 31.09328125 -17.2734375 32.71875 C-17.84320313 33.4715625 -18.41296875 34.224375 -19 35 C-19.99 35 -20.98 35 -22 35 C-19.79352355 29.11014793 -16.65494034 23.73322817 -13.60522461 18.25195312 C-12.56356266 16.37691284 -11.53060905 14.49725079 -10.49804688 12.6171875 C-9.83385841 11.41897962 -9.16916208 10.2210531 -8.50390625 9.0234375 C-7.60393921 7.39801025 -7.60393921 7.39801025 -6.68579102 5.73974609 C-3.15407236 0 -3.15407236 0 0 0 Z " fill="#44372A" transform="translate(235,221)"/>
<path d="M0 0 C0.33 0 0.66 0 1 0 C1 3.3 1 6.6 1 10 C-1.31 10.33 -3.62 10.66 -6 11 C-6 12.32 -6 13.64 -6 15 C-8.64624284 14.85978195 -11.29184578 14.71310224 -13.9375 14.5625 C-14.69224609 14.52318359 -15.44699219 14.48386719 -16.22460938 14.44335938 C-21.88671875 14.11328125 -21.88671875 14.11328125 -23 13 C-23.04063832 11.33382885 -23.042721 9.66611905 -23 8 C-20.2915983 7.97285566 -17.58347279 7.95309154 -14.875 7.9375 C-13.73417969 7.92493164 -13.73417969 7.92493164 -12.5703125 7.91210938 C-8.2610356 7.89353491 -4.24483526 8.13882735 0 9 C0 6.03 0 3.06 0 0 Z " fill="#CCC3B7" transform="translate(401,288)"/>
<path d="M0 0 C1.32 0 2.64 0 4 0 C4 0.99 4 1.98 4 3 C4.66 3 5.32 3 6 3 C7.17407021 5.26727333 8.33939739 7.53834624 9.5 9.8125 C9.83386719 10.45509766 10.16773438 11.09769531 10.51171875 11.75976562 C12.00239084 14.69547699 13 16.66126517 13 20 C12.01 19.34 11.02 18.68 10 18 C9.67 19.32 9.34 20.64 9 22 C6.67405567 18.45570388 5.17478117 14.95474349 3.76171875 10.9921875 C2.94007839 8.73800793 2.94007839 8.73800793 1.3125 5.6875 C0 3 0 3 0 0 Z " fill="#4E3F31" transform="translate(384,339)"/>
<path d="M0 0 C2.05078125 0.03255208 4.1015625 0.06510417 6.15234375 0.09765625 C6.17923591 1.57672517 6.19868996 3.05593108 6.21484375 4.53515625 C6.22644531 5.35886719 6.23804688 6.18257813 6.25 7.03125 C6.15234375 9.09765625 6.15234375 9.09765625 5.15234375 10.09765625 C1.65234375 10.22265625 1.65234375 10.22265625 -1.84765625 10.09765625 C-2.84765625 9.09765625 -2.84765625 9.09765625 -2.98046875 7.28515625 C-2.97789062 6.56328125 -2.9753125 5.84140625 -2.97265625 5.09765625 C-2.97523438 4.37578125 -2.9778125 3.65390625 -2.98046875 2.91015625 C-2.79798679 0.41981421 -2.49538581 0.13189143 0 0 Z " fill="#6C5D4E" transform="translate(256.84765625,354.90234375)"/>
<path d="M0 0 C0.99 0 1.98 0 3 0 C4.640625 2.08203125 4.640625 2.08203125 6.25 4.8125 C7.06210937 6.15248047 7.06210937 6.15248047 7.890625 7.51953125 C9 10 9 10 8 13 C7.01 13.33 6.02 13.66 5 14 C4.34 12.02 3.68 10.04 3 8 C0.525 9.485 0.525 9.485 -2 11 C-3.0625 8.625 -3.0625 8.625 -4 6 C-3.67 5.34 -3.34 4.68 -3 4 C-2.34 4 -1.68 4 -1 4 C-0.67 2.68 -0.34 1.36 0 0 Z " fill="#4D3D2F" transform="translate(255,129)"/>
<path d="M0 0 C1.77074917 -0.02705729 3.54161711 -0.04642195 5.3125 -0.0625 C6.29863281 -0.07410156 7.28476563 -0.08570313 8.30078125 -0.09765625 C11 0 11 0 14 1 C14 12.88 14 24.76 14 37 C13.67 37 13.34 37 13 37 C12.67 26.44 12.34 15.88 12 5 C9.1709277 7.8290723 8.62388892 8.38144425 8 12 C7.01 12 6.02 12 5 12 C6.07401108 9.08482708 6.77810176 7.22189824 9 5 C9.33 3.68 9.66 2.36 10 1 C6.7 1 3.4 1 0 1 C0 0.67 0 0.34 0 0 Z " fill="#F0E6DB" transform="translate(204,287)"/>
<path d="M0 0 C2.86191302 1.43095651 3.46054572 3.43890126 4.9375 6.25 C6.45984302 9.13116071 7.97679436 11.96248511 9.69140625 14.734375 C11 17 11 17 11 19 C10.34 19 9.68 19 9 19 C8.67 19.66 8.34 20.32 8 21 C6.82823482 18.87767021 5.66245215 16.75242209 4.5 14.625 C4.16613281 14.02171875 3.83226562 13.4184375 3.48828125 12.796875 C1 8.2265625 1 8.2265625 1 6 C0.34 6 -0.32 6 -1 6 C-1.625 4.125 -1.625 4.125 -2 2 C-1.34 1.34 -0.68 0.68 0 0 Z " fill="#54483B" transform="translate(257,193)"/>
<path d="M0 0 C0.99 0.33 1.98 0.66 3 1 C3 7.93 3 14.86 3 22 C2.67 22 2.34 22 2 22 C2 19.03 2 16.06 2 13 C1.34 13 0.68 13 0 13 C-0.33 12.01 -0.66 11.02 -1 10 C-1.66 9.67 -2.32 9.34 -3 9 C-2.25 2.25 -2.25 2.25 0 0 Z " fill="#4E3E2F" transform="translate(454,103)"/>
<path d="M0 0 C9.24 0 18.48 0 28 0 C28 0.66 28 1.32 28 2 C22.6737186 3.22557396 17.73643 2.95593857 12.3125 2.6875 C11.35021484 2.65205078 10.38792969 2.61660156 9.39648438 2.58007812 C8.47802734 2.53689453 7.55957031 2.49371094 6.61328125 2.44921875 C5.77579346 2.41143311 4.93830566 2.37364746 4.07543945 2.3347168 C2 2 2 2 0 0 Z " fill="#D7D2C7" transform="translate(360,202)"/>
<path d="M0 0 C0.33 0.66 0.66 1.32 1 2 C1.66 2.33 2.32 2.66 3 3 C1.5756181 5.50834548 0.13668825 8.00604813 -1.3125 10.5 C-1.71662109 11.21542969 -2.12074219 11.93085938 -2.53710938 12.66796875 C-3.6082006 14.49666109 -4.79725124 16.25507952 -6 18 C-6.99 18 -7.98 18 -9 18 C-7.45614871 13.85967154 -5.48971062 10.06446947 -3.375 6.1875 C-3.05015625 5.59001953 -2.7253125 4.99253906 -2.390625 4.37695312 C-1.59620849 2.91662865 -0.79844624 1.45812509 0 0 Z " fill="#4C3C30" transform="translate(222,238)"/>
<path d="M0 0 C2.64 0 5.28 0 8 0 C8 0.66 8 1.32 8 2 C6.35 2 4.7 2 3 2 C3 2.66 3 3.32 3 4 C3.99 4 4.98 4 6 4 C6 4.66 6 5.32 6 6 C5.01 6 4.02 6 3 6 C3 6.66 3 7.32 3 8 C4.65 8 6.3 8 8 8 C8 8.66 8 9.32 8 10 C5.36 10 2.72 10 0 10 C0 6.7 0 3.4 0 0 Z " fill="#706254" transform="translate(242,355)"/>
<path d="M0 0 C2.31 0 4.62 0 7 0 C7 0.66 7 1.32 7 2 C5.35 2 3.7 2 2 2 C2 2.66 2 3.32 2 4 C3.65 4 5.3 4 7 4 C7.38218767 5.65614657 7.71395102 7.32457024 8 9 C7 10 7 10 3.4375 10.0625 C2.303125 10.041875 1.16875 10.02125 0 10 C0 9.34 0 8.68 0 8 C1.65 8 3.3 8 5 8 C5 7.34 5 6.68 5 6 C3.35 6 1.7 6 0 6 C0 4.02 0 2.04 0 0 Z " fill="#6F5F50" transform="translate(206,355)"/>
<path d="M0 0 C2.31 0 4.62 0 7 0 C7 0.66 7 1.32 7 2 C5.68 2 4.36 2 3 2 C3 2.66 3 3.32 3 4 C4.65 4.33 6.3 4.66 8 5 C7.67 6.65 7.34 8.3 7 10 C4.69 10 2.38 10 0 10 C0 9.34 0 8.68 0 8 C1.98 8 3.96 8 6 8 C6 7.34 6 6.68 6 6 C5.195625 6.020625 4.39125 6.04125 3.5625 6.0625 C1 6 1 6 0 5 C-0.04063832 3.33382885 -0.042721 1.66611905 0 0 Z " fill="#716151" transform="translate(233,355)"/>
<path d="M0 0 C0.99 0 1.98 0 3 0 C3 3.3 3 6.6 3 10 C2.01 10 1.02 10 0 10 C-0.66 8.35 -1.32 6.7 -2 5 C-2.66 5 -3.32 5 -4 5 C-4.33 6.32 -4.66 7.64 -5 9 C-5 6.36 -5 3.72 -5 1 C-3.02 1.99 -3.02 1.99 -1 3 C-0.67 2.01 -0.34 1.02 0 0 Z " fill="#6B5B48" transform="translate(229,355)"/>
<path d="M0 0 C2.6015625 -0.29296875 2.6015625 -0.29296875 5.625 -0.1875 C7.12933594 -0.14689453 7.12933594 -0.14689453 8.6640625 -0.10546875 C9.43492187 -0.07066406 10.20578125 -0.03585937 11 0 C10.67 0.66 10.34 1.32 10 2 C7.03 1.67 4.06 1.34 1 1 C1.350625 1.7425 1.70125 2.485 2.0625 3.25 C3.04509293 6.1322726 3.0326802 7.21176345 2 10 C0.35 10 -1.3 10 -3 10 C-3.66 8.68 -4.32 7.36 -5 6 C-4.54625 5.566875 -4.0925 5.13375 -3.625 4.6875 C-1.79975666 2.89201658 -1.79975666 2.89201658 0 0 Z " fill="#DCD3CA" transform="translate(176,287)"/>
<path d="M0 0 C0.33 0.66 0.66 1.32 1 2 C0.67 2.99 0.34 3.98 0 5 C0.66 5 1.32 5 2 5 C0.63330748 8.98618652 -1.05111785 11.96438602 -4 15 C-5.32 15 -6.64 15 -8 15 C-6.66749209 11.4124787 -5.169283 8.1635377 -3 5 C-2.34 5 -1.68 5 -1 5 C-0.67 3.35 -0.34 1.7 0 0 Z " fill="#524235" transform="translate(241,151)"/>
<path d="M0 0 C0.33 0.99 0.66 1.98 1 3 C0.67 3.66 0.34 4.32 0 5 C-0.1546875 6.0828125 -0.1546875 6.0828125 -0.3125 7.1875 C-1.23296223 10.95302731 -2.98832126 13.69046401 -5 17 C-6.32 17 -7.64 17 -9 17 C-7.51481201 12.95698825 -5.57122002 9.38853744 -3.375 5.6875 C-2.74335938 4.61886719 -2.11171875 3.55023438 -1.4609375 2.44921875 C-0.97882813 1.64097656 -0.49671875 0.83273438 0 0 Z " fill="#524638" transform="translate(241,205)"/>
<path d="M0 0 C3 3.625 3 3.625 3 7 C-7.89 7 -18.78 7 -30 7 C-30 6.67 -30 6.34 -30 6 C-20.76 5.67 -11.52 5.34 -2 5 C-1.34 3.35 -0.68 1.7 0 0 Z " fill="#423426" transform="translate(269,241)"/>
<path d="M0 0 C3.80771556 5.71157334 5.94098242 12.47977767 8 19 C6.67823515 18.09674384 5.36784934 17.17682097 4.0625 16.25 C3.33160156 15.73953125 2.60070312 15.2290625 1.84765625 14.703125 C-0.20805399 12.80822085 -0.62669176 11.72574271 -1 9 C-0.34 9 0.32 9 1 9 C0.67 6.03 0.34 3.06 0 0 Z " fill="#D5CDC1" transform="translate(82,147)"/>
<path d="M0 0 C3.96 0 7.92 0 12 0 C12 1.32 12 2.64 12 4 C10.37509046 4.02698189 8.75005367 4.04638757 7.125 4.0625 C5.76761719 4.07990234 5.76761719 4.07990234 4.3828125 4.09765625 C2 4 2 4 0 3 C0 2.01 0 1.02 0 0 Z " fill="#F8F4EA" transform="translate(380,297)"/>
<path d="M0 0 C0.99 0.33 1.98 0.66 3 1 C3 1.66 3 2.32 3 3 C3.433125 2.505 3.86625 2.01 4.3125 1.5 C6 0 6 0 9 0 C8.01 3.3 7.02 6.6 6 10 C5.01 10 4.02 10 3 10 C2.01 6.7 1.02 3.4 0 0 Z " fill="#6E6150" transform="translate(292,355)"/>
<path d="M0 0 C3 1 3 1 4.6875 3.25 C6.06511203 6.1364252 6.26985151 7.85173236 6 11 C4.1875 10.875 4.1875 10.875 2 10 C-1.146948 5.11680482 -1.146948 5.11680482 -0.6875 1.625 C-0.460625 1.08875 -0.23375 0.5525 0 0 Z " fill="#4C3C2D" transform="translate(337,268)"/>
<path d="M0 0 C0.93423645 3.01031744 1.04449911 3.86650268 0 7 C0.66 7 1.32 7 2 7 C0.63629701 9.99220268 -0.94908083 12.29026529 -3.125 14.75 C-3.93324219 15.67039063 -3.93324219 15.67039063 -4.7578125 16.609375 C-5.16773438 17.06828125 -5.57765625 17.5271875 -6 18 C-6.33 17.34 -6.66 16.68 -7 16 C-6.05844449 14.35227786 -5.11043463 12.70779866 -4.125 11.0859375 C-2.23246818 7.57686808 -1.13972997 3.80773421 0 0 Z " fill="#D0C7BB" transform="translate(424,149)"/>
<path d="M0 0 C2.31 0 4.62 0 7 0 C7 0.66 7 1.32 7 2 C5.35 2 3.7 2 2 2 C2.33 2.99 2.66 3.98 3 5 C2.67 5.99 2.34 6.98 2 8 C3.65 8 5.3 8 7 8 C7 8.66 7 9.32 7 10 C4.69 10 2.38 10 0 10 C0 6.7 0 3.4 0 0 Z " fill="#675647" transform="translate(215,355)"/>
<path d="M0 0 C3.51098025 4.01254885 5.76537994 8.20983041 8 13 C6.68 13.33 5.36 13.66 4 14 C3.12808053 12.61518672 2.27809616 11.21654754 1.4375 9.8125 C0.96183594 9.03519531 0.48617188 8.25789062 -0.00390625 7.45703125 C-1.19605797 4.51639033 -0.88855164 2.99553637 0 0 Z " fill="#4A4035" transform="translate(278,230)"/>
<path d="M0 0 C2.31 0 4.62 0 7 0 C7 0.66 7 1.32 7 2 C5.35 2 3.7 2 2 2 C2 2.66 2 3.32 2 4 C3.32 4 4.64 4 6 4 C6 4.66 6 5.32 6 6 C4.68 6 3.36 6 2 6 C2 7.32 2 8.64 2 10 C1.34 10 0.68 10 0 10 C0 6.7 0 3.4 0 0 Z " fill="#6A5A4B" transform="translate(265,355)"/>
<path d="M0 0 C0.99 0 1.98 0 3 0 C4.625 3.25 4.625 3.25 6 7 C5.0859375 9.234375 5.0859375 9.234375 4 11 C3.13341385 9.73760288 2.28207941 8.46472499 1.4375 7.1875 C0.72400391 6.12595703 0.72400391 6.12595703 -0.00390625 5.04296875 C-1 3 -1 3 0 0 Z " fill="#4B3B2D" transform="translate(327,252)"/>
<path d="M0 0 C0.66 0 1.32 0 2 0 C2.391875 0.804375 2.78375 1.60875 3.1875 2.4375 C4.8525473 5.40122736 4.8525473 5.40122736 8.6875 5.8125 C10.3271875 5.9053125 10.3271875 5.9053125 12 6 C12 6.33 12 6.66 12 7 C8 7 4 7 0 7 C-1.125 2.25 -1.125 2.25 0 0 Z " fill="#4E3E30" transform="translate(291,189)"/>
<path d="M0 0 C0.66 0 1.32 0 2 0 C1.29337199 3.67446567 -0.18840116 6.73912209 -2 10 C-2.99 10.495 -2.99 10.495 -4 11 C-5.04808041 12.97522846 -6.0520411 14.97481509 -7 17 C-7.66 16.67 -8.32 16.34 -9 16 C-7.15767888 12.09285522 -4.78691425 8.66904682 -2.33984375 5.12109375 C-0.85075698 2.95108832 -0.85075698 2.95108832 0 0 Z " fill="#D5CBC0" transform="translate(445,158)"/>
<path d="M0 0 C1.32 0.66 2.64 1.32 4 2 C1.65147472 3.17426264 0.26225935 3.11508173 -2.3515625 3.09765625 C-3.20234375 3.09443359 -4.053125 3.09121094 -4.9296875 3.08789062 C-5.81914062 3.07951172 -6.70859375 3.07113281 -7.625 3.0625 C-8.5221875 3.05798828 -9.419375 3.05347656 -10.34375 3.04882812 C-12.56252831 3.03702611 -14.78127243 3.01909039 -17 3 C-17 5.97 -17 8.94 -17 12 C-17.33 12 -17.66 12 -18 12 C-18 8.7 -18 5.4 -18 2 C-16.17662109 1.90912109 -16.17662109 1.90912109 -14.31640625 1.81640625 C-12.73175772 1.73201668 -11.14712298 1.6473679 -9.5625 1.5625 C-8.76005859 1.52318359 -7.95761719 1.48386719 -7.13085938 1.44335938 C-3.24760439 1.5945704 -3.24760439 1.5945704 0 0 Z " fill="#6E6153" transform="translate(246,312)"/>
<path d="M0 0 C3.63 0 7.26 0 11 0 C11.66 1.32 12.32 2.64 13 4 C12.360625 4.5775 11.72125 5.155 11.0625 5.75 C9.01776132 7.98062401 8.41794801 9.07436391 8 12 C7.01 12 6.02 12 5 12 C6.07401108 9.08482708 6.77810176 7.22189824 9 5 C9.33 3.68 9.66 2.36 10 1 C6.7 1 3.4 1 0 1 C0 0.67 0 0.34 0 0 Z " fill="#CCC1B7" transform="translate(204,287)"/>
<path d="M0 0 C1 3 1 3 -0.21484375 5.69921875 C-0.78332031 6.68535156 -1.35179687 7.67148438 -1.9375 8.6875 C-2.50339844 9.68136719 -3.06929687 10.67523438 -3.65234375 11.69921875 C-4.31943359 12.83810547 -4.31943359 12.83810547 -5 14 C-5.66 13.34 -6.32 12.68 -7 12 C-6.40477663 10.55877387 -5.79842381 9.12214132 -5.1875 7.6875 C-4.85105469 6.88699219 -4.51460937 6.08648437 -4.16796875 5.26171875 C-3.01799296 3.03484255 -1.86373039 1.65012233 0 0 Z " fill="#423428" transform="translate(247,197)"/>
<path d="M0 0 C5.61 0 11.22 0 17 0 C16.67 0.66 16.34 1.32 16 2 C13.71484375 2.4140625 13.71484375 2.4140625 10.9375 2.625 C9.55884766 2.73714844 9.55884766 2.73714844 8.15234375 2.8515625 C7.44207031 2.90054687 6.73179687 2.94953125 6 3 C6 2.34 6 1.68 6 1 C4.02 1 2.04 1 0 1 C0 0.67 0 0.34 0 0 Z " fill="#D9CFC3" transform="translate(375,325)"/>
<path d="M0 0 C1.32 0 2.64 0 4 0 C5.8125 2.3125 5.8125 2.3125 7 5 C6.67 5.99 6.34 6.98 6 8 C5.34 8 4.68 8 4 8 C4 7.34 4 6.68 4 6 C2.68 5.34 1.36 4.68 0 4 C0 2.68 0 1.36 0 0 Z " fill="#463524" transform="translate(261,141)"/>
<path d="M0 0 C3 1 3 1 4.6875 3.8125 C6 7 6 7 6 11 C5.34 11 4.68 11 4 11 C0 4.5 0 4.5 0 0 Z " fill="#453629" transform="translate(272,222)"/>
<path d="M0 0 C1 3 1 3 -0.25 5.6875 C-0.8275 6.450625 -1.405 7.21375 -2 8 C-2.99 8 -3.98 8 -5 8 C-5.3125 5.6875 -5.3125 5.6875 -5 3 C-2.5 1.1875 -2.5 1.1875 0 0 Z " fill="#423525" transform="translate(184,248)"/>
<path d="M0 0 C1.9375 0.6875 1.9375 0.6875 4 2 C4.875 4.4375 4.875 4.4375 5 7 C4.01 8.485 4.01 8.485 3 10 C0.96564469 6.27034861 0 4.33094958 0 0 Z " fill="#403022" transform="translate(394,357)"/>
<path d="M0 0 C0.33 0 0.66 0 1 0 C1.08119503 2.24940295 1.13927819 4.49964871 1.1875 6.75 C1.22230469 8.00296875 1.25710938 9.2559375 1.29296875 10.546875 C0.98780115 14.14378372 0.63070928 15.57165297 -2 18 C-2.99 18 -3.98 18 -5 18 C-5 17.34 -5 16.68 -5 16 C-4.35546875 15.42765625 -3.7109375 14.8553125 -3.046875 14.265625 C-0.42542246 11.36401723 -0.41768165 9.60667785 -0.25 5.75 C-0.19328125 4.67234375 -0.1365625 3.5946875 -0.078125 2.484375 C-0.05234375 1.66453125 -0.0265625 0.8446875 0 0 Z " fill="#C8C0B6" transform="translate(255,296)"/>
<path d="M0 0 C0.99 0.99 1.98 1.98 3 3 C2.34 4.65 1.68 6.3 1 8 C-0.66666667 8 -2.33333333 8 -4 8 C-2.87548273 5.0280615 -1.77706209 2.66559313 0 0 Z " fill="#554436" transform="translate(172,263)"/>
<path d="M0 0 C0.66 0 1.32 0 2 0 C0.07517084 6.66287016 0.07517084 6.66287016 -3 9 C-3.99 9.33 -4.98 9.66 -6 10 C-4.63312778 6.01328937 -2.84804907 3.11505367 0 0 Z " fill="#4A3E31" transform="translate(233,221)"/>
<path d="M0 0 C4 4.625 4 4.625 4 8 C2.35 8 0.7 8 -1 8 C-1.33 6.02 -1.66 4.04 -2 2 C-1.34 2 -0.68 2 0 2 C0 1.34 0 0.68 0 0 Z " fill="#4B3E32" transform="translate(290,251)"/>
<path d="M0 0 C0.66 0.33 1.32 0.66 2 1 C0.02 4.63 -1.96 8.26 -4 12 C-4.33 12 -4.66 12 -5 12 C-5 9.69 -5 7.38 -5 5 C-4.34 5 -3.68 5 -3 5 C-2.5359375 4.0409375 -2.5359375 4.0409375 -2.0625 3.0625 C-1 1 -1 1 0 0 Z " fill="#EDE4D8" transform="translate(228,225)"/>
<path d="M0 0 C0.66 0 1.32 0 2 0 C2 3.3 2 6.6 2 10 C1.34 9.67 0.68 9.34 0 9 C0 7.68 0 6.36 0 5 C-1.65 4.67 -3.3 4.34 -5 4 C-5 3.34 -5 2.68 -5 2 C-3.35 2 -1.7 2 0 2 C0 1.34 0 0.68 0 0 Z " fill="#D4C5B5" transform="translate(213,355)"/>
<path d="M0 0 C-0.75 6.75 -0.75 6.75 -3 9 C-3 8.34 -3 7.68 -3 7 C-3.66 7 -4.32 7 -5 7 C-4.53479806 4.30182875 -3.4249099 0 0 0 Z " fill="#423123" transform="translate(253,136)"/>
<path d="M0 0 C0.99 0 1.98 0 3 0 C3 2.97 3 5.94 3 9 C1.35 9 -0.3 9 -2 9 C-2 8.34 -2 7.68 -2 7 C-1.01 7 -0.02 7 1 7 C0.67 4.69 0.34 2.38 0 0 Z " fill="#675848" transform="translate(278,356)"/>
<path d="M0 0 C1.32 1.65 2.64 3.3 4 5 C3.67 5.66 3.34 6.32 3 7 C2.01 6.34 1.02 5.68 0 5 C-0.33 6.32 -0.66 7.64 -1 9 C-2.5625 6.625 -2.5625 6.625 -4 4 C-3.67 3.34 -3.34 2.68 -3 2 C-2.34 2.33 -1.68 2.66 -1 3 C-0.67 2.01 -0.34 1.02 0 0 Z " fill="#76675A" transform="translate(394,352)"/>
<path d="M0 0 C2.475 0.495 2.475 0.495 5 1 C5 2.65 5 4.3 5 6 C4.01 6 3.02 6 2 6 C0 3 0 3 0 0 Z " fill="#443324" transform="translate(389,349)"/>
<path d="M0 0 C0.66 0.33 1.32 0.66 2 1 C1.50168276 4.68754757 0.89932357 6.60490662 -2 9 C-2.97110486 5.97878489 -3.13617383 3.99536737 -2 1 C-1.34 0.67 -0.68 0.34 0 0 Z " fill="#423224" transform="translate(226,178)"/>
<path d="M0 0 C0.99 0.33 1.98 0.66 3 1 C2.67 2.98 2.34 4.96 2 7 C1.01 7 0.02 7 -1 7 C-1.625 5.1875 -1.625 5.1875 -2 3 C-1.34 2.01 -0.68 1.02 0 0 Z " fill="#534234" transform="translate(111,360)"/>
<path d="M0 0 C1.32 0 2.64 0 4 0 C4 1.98 4 3.96 4 6 C2.68 6 1.36 6 0 6 C0 4.02 0 2.04 0 0 Z " fill="#D7CBBE" transform="translate(257,357)"/>
<path d="M0 0 C1.32 0 2.64 0 4 0 C4 1.98 4 3.96 4 6 C2.68 6 1.36 6 0 6 C0 4.02 0 2.04 0 0 Z " fill="#D5C9BC" transform="translate(285,357)"/>
<path d="M0 0 C0.33 0.66 0.66 1.32 1 2 C1.66 2.33 2.32 2.66 3 3 C0.53846154 7.8 0.53846154 7.8 -2.1875 8.8125 C-2.785625 8.874375 -3.38375 8.93625 -4 9 C-2.80100302 5.9168649 -1.52299523 2.93720508 0 0 Z " fill="#514639" transform="translate(222,238)"/>
<path d="M0 0 C0.33 0 0.66 0 1 0 C1.10815225 1.76949095 1.18566083 3.54087487 1.25 5.3125 C1.29640625 6.29863281 1.3428125 7.28476562 1.390625 8.30078125 C1 11 1 11 -1.015625 12.85546875 C-1.67046875 13.23316406 -2.3253125 13.61085938 -3 14 C-3 12.35 -3 10.7 -3 9 C-2.01 9 -1.02 9 0 9 C0 6.03 0 3.06 0 0 Z " fill="#DCD2C6" transform="translate(163,301)"/>
<path d="M0 0 C1.32 0 2.64 0 4 0 C4.33 1.65 4.66 3.3 5 5 C4.01 5 3.02 5 2 5 C2 4.34 2 3.68 2 3 C1.01 3.33 0.02 3.66 -1 4 C-0.67 2.68 -0.34 1.36 0 0 Z " fill="#483D2D" transform="translate(252,189)"/>
<path d="M0 0 C2 2 2 2 2.1953125 3.9453125 C2.13020833 5.96354167 2.06510417 7.98177083 2 10 C1.34 9.67 0.68 9.34 0 9 C0 7.68 0 6.36 0 5 C-1.32 4.67 -2.64 4.34 -4 4 C-4 3.34 -4 2.68 -4 2 C-2.68 2 -1.36 2 0 2 C0 1.34 0 0.68 0 0 Z " fill="#D4C4B5" transform="translate(240,355)"/>
<path d="M0 0 C0.66 1.32 1.32 2.64 2 4 C4.55519921 4.81171228 4.55519921 4.81171228 7 5 C7 5.66 7 6.32 7 7 C5.02 7 3.04 7 1 7 C0.67 7.66 0.34 8.32 0 9 C0 6.03 0 3.06 0 0 Z " fill="#CEBEAE" transform="translate(232,356)"/>
<path d="M0 0 C0.99 0 1.98 0 3 0 C2.67 1.65 2.34 3.3 2 5 C-0.31 5 -2.62 5 -5 5 C-5 4.34 -5 3.68 -5 3 C-3.02 3 -1.04 3 1 3 C0.67 2.01 0.34 1.02 0 0 Z " fill="#6B5A4B" transform="translate(238,360)"/>
<path d="M0 0 C0.66 1.32 1.32 2.64 2 4 C-1.32307692 7.93846154 -1.32307692 7.93846154 -4.75 8.25 C-5.4925 8.1675 -6.235 8.085 -7 8 C-6.38125 7.938125 -5.7625 7.87625 -5.125 7.8125 C-2.74397155 7.17948312 -2.74397155 7.17948312 -1.8125 4.5625 C-1.4103125 3.2940625 -1.4103125 3.2940625 -1 2 C-0.67 1.34 -0.34 0.68 0 0 Z " fill="#DAD2C9" transform="translate(172,271)"/>
<path d="M0 0 C1.65 0 3.3 0 5 0 C6.06775224 1.96466413 7.06553465 3.96855359 8 6 C7.67 6.66 7.34 7.32 7 8 C5.8274869 7.04882866 4.66212985 6.08882991 3.5 5.125 C2.8503125 4.59132812 2.200625 4.05765625 1.53125 3.5078125 C1.0259375 3.01023438 0.520625 2.51265625 0 2 C0 1.34 0 0.68 0 0 Z " fill="#C5B9A9" transform="translate(82,158)"/>
<path d="M0 0 C0 1.65 0 3.3 0 5 C-0.99 5 -1.98 5 -3 5 C-4.6875 2.5 -4.6875 2.5 -6 0 C-3.50907189 -1.24546405 -2.58919267 -0.7767578 0 0 Z " fill="#F1EAE0" transform="translate(83,151)"/>
<path d="M0 0 C0.66 0 1.32 0 2 0 C2 0.66 2 1.32 2 2 C3.32 1.67 4.64 1.34 6 1 C6.66 2.65 7.32 4.3 8 6 C2.33846154 4.52307692 2.33846154 4.52307692 0.625 1.875 C0.41875 1.25625 0.2125 0.6375 0 0 Z " fill="#524133" transform="translate(263,147)"/>
<path d="M0 0 C1.98 0 3.96 0 6 0 C6 1.65 6 3.3 6 5 C4.35 5 2.7 5 1 5 C1.99 4.67 2.98 4.34 4 4 C4 3.34 4 2.68 4 2 C2.68 2 1.36 2 0 2 C0 1.34 0 0.68 0 0 Z " fill="#D4C8BB" transform="translate(217,357)"/>
<path d="M0 0 C0.83449189 3.33796756 1.46019653 6.60694964 2 10 C0.35 9.67 -1.3 9.34 -3 9 C-2.01 6.03 -1.02 3.06 0 0 Z " fill="#C1B5A7" transform="translate(349,179)"/>
<path d="M0 0 C0.33 0.99 0.66 1.98 1 3 C0.38125 3.2475 -0.2375 3.495 -0.875 3.75 C-3.35068687 5.20628639 -3.95125002 6.37812506 -5 9 C-5.66 8.34 -6.32 7.68 -7 7 C-4.69 4.69 -2.38 2.38 0 0 Z " fill="#67584A" transform="translate(337,175)"/>
<path d="M0 0 C2 3 2 3 1.625 5.6875 C1.41875 6.450625 1.2125 7.21375 1 8 C-0.32 7.34 -1.64 6.68 -3 6 C-1.125 1.125 -1.125 1.125 0 0 Z " fill="#524335" transform="translate(228,173)"/>
<path d="M0 0 C2.375 0.25 2.375 0.25 5 1 C6.375 2.875 6.375 2.875 7 5 C6.67 5.99 6.34 6.98 6 8 C2.76260721 6.3813036 1.57755229 3.15510457 0 0 Z " fill="#E0D5CB" transform="translate(169,172)"/>
<path d="M0 0 C1.32 0.33 2.64 0.66 4 1 C3.01 1 2.02 1 1 1 C0.731875 2.134375 0.46375 3.26875 0.1875 4.4375 C-0.204375 5.613125 -0.59625 6.78875 -1 8 C-1.99 8.33 -2.98 8.66 -4 9 C-2.94124926 5.59687262 -1.99097846 2.98646769 0 0 Z " fill="#675C4F" transform="translate(347,159)"/>
<path d="M0 0 C2.62386487 3.06117568 3 3.73173127 3 8 C1.68 8.33 0.36 8.66 -1 9 C-0.67 6.03 -0.34 3.06 0 0 Z " fill="#EADFCF" transform="translate(292,357)"/>
<path d="M0 0 C0.66 0 1.32 0 2 0 C1.67 0.99 1.34 1.98 1 3 C0.34 3 -0.32 3 -1 3 C-1 6.96 -1 10.92 -1 15 C-1.33 15 -1.66 15 -2 15 C-2.05386629 12.87527424 -2.09273071 10.75016348 -2.125 8.625 C-2.14820313 7.44164062 -2.17140625 6.25828125 -2.1953125 5.0390625 C-2 2 -2 2 0 0 Z " fill="#C8BEB2" transform="translate(144,297)"/>
<path d="M0 0 C2.97 0 5.94 0 9 0 C9 0.33 9 0.66 9 1 C7.8553125 1.1546875 7.8553125 1.1546875 6.6875 1.3125 C3.82940576 2.04364039 2.84257115 2.76951913 1 5 C0.67 3.35 0.34 1.7 0 0 Z " fill="#433326" transform="translate(177,288)"/>
<path d="M0 0 C4 4.75 4 4.75 4 7 C3.01 7.33 2.02 7.66 1 8 C-1.125 3.375 -1.125 3.375 0 0 Z " fill="#574A3D" transform="translate(278,230)"/>
<path d="M0 0 C0 0.99 0 1.98 0 3 C-1.64333504 4.03789581 -3.31243867 5.03567924 -5 6 C-5.66 6.99 -6.32 7.98 -7 9 C-7 5 -7 5 -4.625 2.25 C-2 0 -2 0 0 0 Z " fill="#DDD3C6" transform="translate(317,210)"/>
<path d="M0 0 C-0.75 4.75 -0.75 4.75 -3 7 C-4 6 -4 6 -4.0625 3.4375 C-4.041875 2.633125 -4.02125 1.82875 -4 1 C-2 0 -2 0 0 0 Z " fill="#413122" transform="translate(233,170)"/>
<path d="M0 0 C0.99 0.99 1.98 1.98 3 3 C2.67 3.66 2.34 4.32 2 5 C0.35 4.67 -1.3 4.34 -3 4 C-3 3.01 -3 2.02 -3 1 C-2.01 0.67 -1.02 0.34 0 0 Z " fill="#534436" transform="translate(314,227)"/>
<path d="M0 0 C0.33 0.99 0.66 1.98 1 3 C0.67 3.66 0.34 4.32 0 5 C-0.35613097 6.66194453 -0.69208308 8.328451 -1 10 C-1.66 9.01 -2.32 8.02 -3 7 C-1.59459459 1.59459459 -1.59459459 1.59459459 0 0 Z " fill="#5E4E43" transform="translate(241,205)"/>
<path d="M0 0 C0.99 1.32 1.98 2.64 3 4 C2.67 4.66 2.34 5.32 2 6 C-0.0625 6.625 -0.0625 6.625 -2 7 C-2 5.68 -2 4.36 -2 3 C-1.34 3 -0.68 3 0 3 C0 2.01 0 1.02 0 0 Z " fill="#564739" transform="translate(273,156)"/>
<path d="M0 0 C0.99 0 1.98 0 3 0 C3.625 1.8125 3.625 1.8125 4 4 C3.01 5.485 3.01 5.485 2 7 C0 4 0 4 0 0 Z " fill="#3C2C1E" transform="translate(329,256)"/>
<path d="M0 0 C0.66 0.33 1.32 0.66 2 1 C2 2.32 2 3.64 2 5 C0.02 5 -1.96 5 -4 5 C-2.25 1.125 -2.25 1.125 0 0 Z " fill="#FAF4EA" transform="translate(221,251)"/>
<path d="M0 0 C3 0 3 0 5 1 C5 1.66 5 2.32 5 3 C4.34 3 3.68 3 3 3 C2.67 3.66 2.34 4.32 2 5 C0.68 5 -0.64 5 -2 5 C-1.34 3.35 -0.68 1.7 0 0 Z " fill="#564838" transform="translate(183,245)"/>
<path d="M0 0 C0.99 0.33 1.98 0.66 3 1 C3 1.66 3 2.32 3 3 C3.66 3.33 4.32 3.66 5 4 C3.68 4.99 2.36 5.98 1 7 C-0.0625 4.625 -0.0625 4.625 -1 2 C-0.67 1.34 -0.34 0.68 0 0 Z " fill="#605042" transform="translate(252,133)"/>
<path d="M0 0 C0.99 0 1.98 0 3 0 C3 2.31 3 4.62 3 7 C2.67 6.01 2.34 5.02 2 4 C-0.01508358 3.26676204 -0.01508358 3.26676204 -2 3 C-1.34 2.01 -0.68 1.02 0 0 Z " fill="#DFD7CA" transform="translate(52,100)"/>
<path d="M0 0 C0.33 0 0.66 0 1 0 C1 1.65 1 3.3 1 5 C0.01 5.495 0.01 5.495 -1 6 C-1 5.34 -1 4.68 -1 4 C-2.32 4 -3.64 4 -5 4 C-5 3.34 -5 2.68 -5 2 C-3.35 2 -1.7 2 0 2 C0 1.34 0 0.68 0 0 Z " fill="#DFD3C8" transform="translate(272,355)"/>
<path d="M0 0 C0.33 0.99 0.66 1.98 1 3 C-0.89353366 4.89353366 -2.84526801 6.4198632 -5 8 C-3.8141763 4.62496331 -2.72426311 2.35277269 0 0 Z " fill="#453C32" transform="translate(247,197)"/>
</svg>
