<?xml version="1.0" encoding="UTF-8"?>
<svg version="1.1" xmlns="http://www.w3.org/2000/svg" width="1024" height="1024">
<path d="M0 0 C337.92 0 675.84 0 1024 0 C1024 337.92 1024 675.84 1024 1024 C686.08 1024 348.16 1024 0 1024 C0 686.08 0 348.16 0 0 Z " fill="#FDFDF4" transform="translate(0,0)"/>
<path d="M0 0 C1.32150558 -0.00101212 1.32150558 -0.00101212 2.66970825 -0.00204468 C17.56000979 0.01597885 32.10116233 0.79851254 46.8125 3.25 C47.83230957 3.41628906 48.85211914 3.58257812 49.90283203 3.75390625 C74.20842713 7.84588485 97.27354849 15.37226383 119.8125 25.25 C120.53630859 25.5584082 121.26011719 25.86681641 122.00585938 26.18457031 C143.19813408 35.24271977 162.73501012 48.05327561 180.8125 62.25 C181.37195313 62.68103027 181.93140625 63.11206055 182.5078125 63.55615234 C198.67129168 76.08995577 214.65411795 91.85356671 226.54931641 108.50390625 C227.94857489 110.43809579 229.39922728 112.32712805 230.85546875 114.21875 C263.55367231 157.2873214 284.91844988 215.26682225 284.98046875 269.55859375 C284.98379715 270.6053981 284.98712555 271.65220245 284.99055481 272.73072815 C284.99558518 274.93498297 284.99796435 277.1392453 284.99780273 279.34350586 C284.99997389 282.64775785 285.01812968 285.95166688 285.03710938 289.25585938 C285.08592545 306.97094678 284.11761518 324.18007379 280.1875 341.5 C279.95804688 342.55445313 279.72859375 343.60890625 279.4921875 344.6953125 C278.94223542 347.21592622 278.3825696 349.73387567 277.8125 352.25 C265.23994436 355.00302177 252.66211412 357.71088897 240.03125 360.18359375 C202.35556939 367.56122752 164.62872806 375.525987 129.8125 392.25 C129.07306152 392.60449219 128.33362305 392.95898438 127.57177734 393.32421875 C113.59426064 400.13838052 101.90847998 409.46310024 90.8125 420.25 C90.03132813 421.00539063 89.25015625 421.76078125 88.4453125 422.5390625 C79.05456698 432.26399826 70.87615292 445.3113291 66.8125 458.25 C66.4825 458.25 66.1525 458.25 65.8125 458.25 C65.79848145 457.34012329 65.79848145 457.34012329 65.78417969 456.41186523 C64.97365139 414.04586908 53.58345403 377.39570968 22.8125 347.25 C21.87277344 346.53457031 20.93304687 345.81914063 19.96484375 345.08203125 C19.25457031 344.47746094 18.54429687 343.87289063 17.8125 343.25 C17.8125 340.25 17.8125 340.25 19.2109375 338.8125 C19.86320312 338.296875 20.51546875 337.78125 21.1875 337.25 C40.98016646 320.52921123 53.75694194 296.72455979 56.59765625 270.96875 C58.09030962 245.13227711 49.07757368 223.33661558 33.0234375 203.66015625 C30.84196453 201.15382249 30.84196453 201.15382249 28.0390625 199.05859375 C27.30429687 198.46175781 26.56953125 197.86492187 25.8125 197.25 C25.8125 196.59 25.8125 195.93 25.8125 195.25 C26.32522461 195.00467529 26.83794922 194.75935059 27.36621094 194.5065918 C38.7259083 188.99843581 48.10759729 183.47023295 56.8125 174.25 C57.48410156 173.56164062 58.15570312 172.87328125 58.84765625 172.1640625 C76.72881256 152.90743263 82.80578386 128.84582261 82.01806641 103.26318359 C81.5281084 96.08140007 79.74527974 89.16141328 77.8125 82.25 C89.44402029 87.54626959 96.70325041 101.77776138 101.11279297 113.15771484 C103.46316954 120.18588206 104.77775851 127.56801215 106.29833984 134.81005859 C108.81121345 147.47832826 108.81121345 147.47832826 117.078125 156.8671875 C121.05925569 159.32181102 125.13316377 161.41429512 129.375 163.375 C132.8125 165.25 132.8125 165.25 133.703125 167.1171875 C133.85340218 170.04759253 132.85638234 171.02408019 131 173.25 C126.07596221 179.2383785 125.38063659 183.23998297 125.484375 191.01171875 C125.86401413 194.75839544 126.88359041 196.98857896 128.8046875 200.15234375 C130.10834608 202.86577265 130.41064438 205.39761517 130.8125 208.375 C131.35114866 212.29244477 131.67182516 214.04312524 133.9375 217.375 C136.31741369 221.024201 136.29058844 223.61659724 136.34375 227.8828125 C135.61085065 231.14852578 134.48682129 232.25404314 131.8125 234.25 C128.53515625 235.19140625 128.53515625 235.19140625 124.875 235.8125 C120.13035225 236.62949282 116.8521343 237.64122007 112.8125 240.25 C112.1525 240.25 111.4925 240.25 110.8125 240.25 C109.03051523 243.55710686 107.85092935 246.93214999 106.6875 250.5 C106.15769531 252.11648438 106.15769531 252.11648438 105.6171875 253.765625 C105.35164063 254.58546875 105.08609375 255.4053125 104.8125 256.25 C130.65668875 256.02216581 130.65668875 256.02216581 152.8125 244.25 C158.09910693 237.45293395 159.31974125 231.3655587 158.36328125 222.96484375 C157.5483386 218.94792785 155.82981877 215.77432766 153.8125 212.25 C153.12209426 210.59302621 152.44278587 208.93076231 151.8125 207.25 C155.5625 204.25 155.5625 204.25 157.8125 204.25 C158.23140218 201.46061788 158.23140218 201.46061788 157.8125 198.25 C155.41889503 195.37767403 153.06617871 193.41544264 149.9375 191.375 C147.8125 189.25 147.8125 189.25 147.625 185.8125 C149.32721954 180.70584138 152.39022946 178.51549502 156.98828125 176.11328125 C157.71402344 175.72527344 158.43976563 175.33726562 159.1875 174.9375 C159.87585938 174.61136719 160.56421875 174.28523437 161.2734375 173.94921875 C163.40752365 171.59305764 163.53559081 169.38069643 163.3828125 166.27172852 C162.27400728 162.34107097 158.97822962 160.84610397 155.625 158.875 C154.15557672 157.94059919 152.68815721 157.00304058 151.22265625 156.0625 C150.48289551 155.59714844 149.74313477 155.13179687 148.98095703 154.65234375 C145.7222568 152.54493842 142.63576398 150.24181297 139.5625 147.875 C138.54671875 147.10414063 137.5309375 146.33328125 136.484375 145.5390625 C132.57509799 142.18988658 129.68373997 139.01585148 128.3125 134 C128.07144531 133.13246094 127.83039063 132.26492188 127.58203125 131.37109375 C126.83381588 128.33645374 126.15654516 125.290168 125.48510742 122.23779297 C118.89427287 92.68352229 100.82745374 68.9700561 75.30078125 52.74072266 C60.83158151 44.07226371 45.02991445 37.77082862 28.8125 33.25 C28.1323584 33.05937988 27.4522168 32.86875977 26.75146484 32.67236328 C-3.92280566 24.52001726 -34.6641145 32.50344663 -62.1875 46.25 C-63.28707031 46.79398437 -64.38664063 47.33796875 -65.51953125 47.8984375 C-74.33534571 52.43959464 -83.92890602 57.92190918 -90.9609375 65.046875 C-92.1875 66.25 -92.1875 66.25 -94.1875 66.25 C-94.42339844 66.81976563 -94.65929687 67.38953125 -94.90234375 67.9765625 C-96.47471025 70.75807405 -98.39548516 72.46577356 -100.75 74.625 C-116.12943436 89.78282868 -123.77574905 110.38613348 -126.5625 131.4609375 C-128.81225792 141.50048224 -136.71907495 147.08691158 -144.9296875 152.35546875 C-147.46854582 153.95632762 -150.01755424 155.53532208 -152.5859375 157.08837891 C-158.4006754 160.5391443 -158.4006754 160.5391443 -163.1875 165.25 C-163.77095476 168.29253508 -163.77095476 168.29253508 -163.1875 171.25 C-160.35438434 174.75026871 -156.32597962 176.57279563 -152.46484375 178.75 C-150.1875 180.25 -150.1875 180.25 -148.1875 183.25 C-147.625 186.125 -147.625 186.125 -148.1875 189.25 C-150.27592609 191.3438789 -152.5570261 192.90500656 -155.1875 194.25 C-155.8475 194.25 -156.5075 194.25 -157.1875 194.25 C-158.15747136 198.23970552 -158.15747136 198.23970552 -158.1875 202.25 C-156.41767948 204.54259828 -154.65672791 205.637443 -152.1875 207.25 C-152.620625 208.260625 -153.05375 209.27125 -153.5 210.3125 C-153.77070313 210.95832031 -154.04140625 211.60414063 -154.3203125 212.26953125 C-155.09858852 214.0469454 -155.98086226 215.77795694 -156.875 217.5 C-159.30542155 224.44406156 -159.14869541 231.71060714 -156.15234375 238.4765625 C-151.55285106 246.93069077 -143.81855513 250.71997773 -134.93115234 253.60522461 C-129.26151267 254.93762525 -123.42387372 254.94152444 -117.625 255.1875 C-104.77117402 255.84752074 -93.19329231 257.39150675 -81.1875 262.25 C-81.20844727 263.24628418 -81.22939453 264.24256836 -81.25097656 265.26904297 C-82.16229174 291.1010899 -82.16229174 291.1010899 -77.1875 316.25 C-76.81367188 317.39082031 -76.43984375 318.53164063 -76.0546875 319.70703125 C-74.88986897 322.9584949 -73.59112248 326.09481482 -72.1875 329.25 C-71.71957031 330.31992187 -71.25164062 331.38984375 -70.76953125 332.4921875 C-64.56548023 345.75813362 -55.96519374 357.9839228 -46.49023438 369.1159668 C-44.88327875 371.74835044 -44.81280269 373.21199526 -45.1875 376.25 C-46.48819074 378.89473783 -47.837471 381.39502351 -49.3125 383.9375 C-67.09457247 416.06209805 -68.73672777 456.39588724 -59.08984375 491.328125 C-50.7076995 518.49195519 -34.40084684 539.73904746 -14.1875 559.25 C-13.18614814 560.24864631 -12.18590157 561.24840412 -11.1875 562.25 C-38.9563122 562.94189376 -67.89794104 558.03874029 -94.1875 549.25 C-95.09902832 548.9514209 -96.01055664 548.6528418 -96.94970703 548.34521484 C-117.82539685 541.43889474 -137.86375146 532.4971149 -156.1875 520.25 C-156.78900879 519.85522461 -157.39051758 519.46044922 -158.01025391 519.05371094 C-176.36746471 506.981324 -192.69526056 492.79213393 -208.1875 477.25 C-209.08726562 476.38503906 -209.98703125 475.52007813 -210.9140625 474.62890625 C-218.43686447 467.35953659 -224.93629838 459.62618984 -231.1875 451.25 C-231.60209473 450.70682129 -232.01668945 450.16364258 -232.44384766 449.60400391 C-240.4416545 439.1146092 -246.82721907 427.7836624 -253.1875 416.25 C-253.60950684 415.49783203 -254.03151367 414.74566406 -254.46630859 413.97070312 C-289.67193262 351.19854619 -294.86585758 272.91608091 -275.8125 204.25 C-263.70062569 162.11261546 -242.82059588 122.98248398 -212.6953125 90.96875 C-210.92020509 89.04433449 -209.24292142 87.12770149 -207.58984375 85.10546875 C-205.67687189 82.83167618 -203.89082183 80.95321934 -201.625 79.0625 C-199.25841927 77.05462466 -196.95474517 75.02824146 -194.70703125 72.88671875 C-143.06385867 23.72008759 -70.36498786 0.04876299 0 0 Z " fill="#214559" transform="translate(503.1875,231.75)"/>
<path d="M0 0 C42.23163663 -0.84463273 82.37502213 8.07253376 121 25 C121.72380859 25.3084082 122.44761719 25.61681641 123.19335938 25.93457031 C144.38563408 34.99271977 163.92251012 47.80327561 182 62 C182.55945313 62.43103027 183.11890625 62.86206055 183.6953125 63.30615234 C199.85879168 75.83995577 215.84161795 91.60356671 227.73681641 108.25390625 C229.13607489 110.18809579 230.58672728 112.07712805 232.04296875 113.96875 C264.74117231 157.0373214 286.10594988 215.01682225 286.16796875 269.30859375 C286.17129715 270.3553981 286.17462555 271.40220245 286.17805481 272.48072815 C286.18308518 274.68498297 286.18546435 276.8892453 286.18530273 279.09350586 C286.18747389 282.39775785 286.20562968 285.70166688 286.22460938 289.00585938 C286.27342545 306.72094678 285.30511518 323.93007379 281.375 341.25 C281.14554688 342.30445313 280.91609375 343.35890625 280.6796875 344.4453125 C280.12973542 346.96592622 279.5700696 349.48387567 279 352 C266.42744436 354.75302177 253.84961412 357.46088897 241.21875 359.93359375 C203.54306939 367.31122752 165.81622806 375.275987 131 392 C130.26056152 392.35449219 129.52112305 392.70898438 128.75927734 393.07421875 C114.78176064 399.88838052 103.09597998 409.21310024 92 420 C91.21882812 420.75539063 90.43765625 421.51078125 89.6328125 422.2890625 C80.24206698 432.01399826 72.06365292 445.0613291 68 458 C67.67 458 67.34 458 67 458 C66.9906543 457.39341553 66.98130859 456.78683105 66.97167969 456.16186523 C66.16115139 413.79586908 54.77095403 377.14570968 24 347 C23.06027344 346.28457031 22.12054687 345.56914063 21.15234375 344.83203125 C20.44207031 344.22746094 19.73179687 343.62289063 19 343 C19 340 19 340 20.3984375 338.5625 C21.05070313 338.046875 21.70296875 337.53125 22.375 337 C42.16766646 320.27921123 54.94444194 296.47455979 57.78515625 270.71875 C59.27780962 244.88227711 50.26507368 223.08661558 34.2109375 203.41015625 C32.02946453 200.90382249 32.02946453 200.90382249 29.2265625 198.80859375 C28.12441406 197.91333984 28.12441406 197.91333984 27 197 C27 196.34 27 195.68 27 195 C27.76908691 194.63201294 27.76908691 194.63201294 28.55371094 194.2565918 C39.9134083 188.74843581 49.29509729 183.22023295 58 174 C58.67160156 173.31164062 59.34320312 172.62328125 60.03515625 171.9140625 C77.91631256 152.65743263 83.99328386 128.59582261 83.20556641 103.01318359 C82.7156084 95.83140007 80.93277974 88.91141328 79 82 C90.63152029 87.29626959 97.89075041 101.52776138 102.30029297 112.90771484 C104.65066954 119.93588206 105.96525851 127.31801215 107.48583984 134.56005859 C109.99871345 147.22832826 109.99871345 147.22832826 118.265625 156.6171875 C122.24675569 159.07181102 126.32066377 161.16429512 130.5625 163.125 C134 165 134 165 134.890625 166.8671875 C135.04090218 169.79759253 134.04388234 170.77408019 132.1875 173 C127.26346221 178.9883785 126.56813659 182.98998297 126.671875 190.76171875 C127.05151413 194.50839544 128.07109041 196.73857896 129.9921875 199.90234375 C131.29584608 202.61577265 131.59814438 205.14761517 132 208.125 C132.53864866 212.04244477 132.85932516 213.79312524 135.125 217.125 C137.50491369 220.774201 137.47808844 223.36659724 137.53125 227.6328125 C136.79835065 230.89852578 135.67432129 232.00404314 133 234 C129.72265625 234.94140625 129.72265625 234.94140625 126.0625 235.5625 C121.31785225 236.37949282 118.0396343 237.39122007 114 240 C113.34 240 112.68 240 112 240 C110.21801523 243.30710686 109.03842935 246.68214999 107.875 250.25 C107.52179688 251.32765625 107.16859375 252.4053125 106.8046875 253.515625 C106.53914062 254.33546875 106.27359375 255.1553125 106 256 C131.84418875 255.77216581 131.84418875 255.77216581 154 244 C159.28660693 237.20293395 160.50724125 231.1155587 159.55078125 222.71484375 C158.7358386 218.69792785 157.01731877 215.52432766 155 212 C154.30959426 210.34302621 153.63028587 208.68076231 153 207 C156.75 204 156.75 204 159 204 C159.41890218 201.21061788 159.41890218 201.21061788 159 198 C156.60639503 195.12767403 154.25367871 193.16544264 151.125 191.125 C149 189 149 189 148.8125 185.5625 C150.51471954 180.45584138 153.57772946 178.26549502 158.17578125 175.86328125 C158.90152344 175.47527344 159.62726563 175.08726562 160.375 174.6875 C161.06335938 174.36136719 161.75171875 174.03523437 162.4609375 173.69921875 C164.59502365 171.34305764 164.72309081 169.13069643 164.5703125 166.02172852 C163.46150728 162.09107097 160.16572962 160.59610397 156.8125 158.625 C155.34307672 157.69059919 153.87565721 156.75304058 152.41015625 155.8125 C151.67039551 155.34714844 150.93063477 154.88179687 150.16845703 154.40234375 C146.9097568 152.29493842 143.82326398 149.99181297 140.75 147.625 C139.73421875 146.85414063 138.7184375 146.08328125 137.671875 145.2890625 C133.76259799 141.93988658 130.87123997 138.76585148 129.5 133.75 C129.25894531 132.88246094 129.01789063 132.01492188 128.76953125 131.12109375 C128.02131588 128.08645374 127.34404516 125.040168 126.67260742 121.98779297 C120.08177287 92.43352229 102.01495374 68.7200561 76.48828125 52.49072266 C52.68651551 38.23114832 27.48948103 30.96353436 0 29 C0 19.43 0 9.86 0 0 Z " fill="#52C39C" transform="translate(502,232)"/>
<path d="M0 0 C7.7742373 0.79614936 15.37732003 2.41274299 23.0234375 3.984375 C24.49344135 4.28493775 25.96346327 4.58541212 27.4335022 4.88580322 C30.51195193 5.51573941 33.58986749 6.14821563 36.66748047 6.78222656 C39.78706213 7.42454569 42.90747623 8.06253266 46.02880859 8.69628906 C77.66060667 15.12001432 77.66060667 15.12001432 90.55957031 18.97802734 C94.14775487 20.04389028 97.74351756 20.96905095 101.375 21.875 C128.81910124 29.18952592 154.79559476 40.17582644 177 58 C177.99 58.66 178.98 59.32 180 60 C180 60.66 180 61.32 180 62 C180.56976563 62.24492188 181.13953125 62.48984375 181.7265625 62.7421875 C193.18314908 69.08071134 200.60809876 83.15562054 207 94 C207.43828125 94.73476563 207.8765625 95.46953125 208.328125 96.2265625 C210.2882834 99.7811781 211.30320344 103.06699228 211.98828125 107.0703125 C212.15714844 108.04274902 212.32601562 109.01518555 212.5 110.01708984 C212.96608122 112.79764668 213.43061709 115.57845591 213.89453125 118.359375 C219.9940173 154.65397475 236.79070974 181.70145728 263 207 C264.00135186 207.99864631 265.00159843 208.99840412 266 210 C238.2311878 210.69189376 209.28955896 205.78874029 183 197 C182.08847168 196.7014209 181.17694336 196.4028418 180.23779297 196.09521484 C159.36210315 189.18889474 139.32374854 180.2471149 121 168 C120.39849121 167.60522461 119.79698242 167.21044922 119.17724609 166.80371094 C100.82003529 154.731324 84.49223944 140.54213393 69 125 C68.10023438 124.13503906 67.20046875 123.27007813 66.2734375 122.37890625 C58.75063553 115.10953659 52.25120162 107.37618984 46 99 C45.58540527 98.45682129 45.17081055 97.91364258 44.74365234 97.35400391 C36.7458455 86.8646092 30.36028093 75.5336624 24 64 C23.57799316 63.24783203 23.15598633 62.49566406 22.72119141 61.72070312 C14.36866112 46.82801605 8.25674713 31.29166375 3 15.0625 C2.69690918 14.13284424 2.39381836 13.20318848 2.08154297 12.24536133 C1.80713379 11.37161865 1.53272461 10.49787598 1.25 9.59765625 C0.88648438 8.44535522 0.88648438 8.44535522 0.515625 7.26977539 C-0.04928003 4.78306985 -0.08974749 2.54181713 0 0 Z " fill="#229BC9" transform="translate(226,584)"/>
<path d="M0 0 C0.66 0 1.32 0 2 0 C-8.07249113 47.19681557 -35.6070626 91.66350095 -70 125 C-72.23023565 127.2168005 -74.45660982 129.43321025 -76.6328125 131.703125 C-80.92021626 136.14765874 -85.57640981 140.01633955 -90.38671875 143.8828125 C-92.41359545 145.52491589 -94.37131021 147.1978008 -96.3125 148.9375 C-138.79073949 185.33317468 -201.86525561 207.62134744 -257.75 207.0625 C-258.94109375 207.05347656 -260.1321875 207.04445313 -261.359375 207.03515625 C-262.66648437 207.01775391 -262.66648437 207.01775391 -264 207 C-261.15421516 204.06528438 -258.24308235 201.33241032 -255.125 198.6875 C-251.6855635 195.70536686 -248.69310008 192.54382172 -245.765625 189.0625 C-244.61002367 187.71259402 -243.4123855 186.39731847 -242.171875 185.125 C-229.68809155 172.13374568 -220.90352608 154.48572215 -216.0625 137.25 C-214.87113084 133.60697034 -214.09401975 131.40063334 -210.6875 129.5 C-199.47428739 125.68694281 -188.24367118 123.37864065 -176.53652954 121.84793091 C-157.42465899 119.32420016 -138.5726625 116.29502794 -121 108 C-120.3198584 107.68047363 -119.6397168 107.36094727 -118.93896484 107.03173828 C-104.02553703 99.88890198 -92.07163975 90.20010815 -80 79 C-78.99689492 78.08766002 -77.99294418 77.1762492 -76.98828125 76.265625 C-70.48322734 70.34598625 -64.17192746 64.27109977 -58.02050781 57.98364258 C-55.24761886 55.16724595 -52.43056241 52.47910155 -49.4206543 49.91625977 C-44.35379224 45.50298989 -39.62701134 40.77057778 -34.8828125 36.015625 C-33.93511248 35.06860037 -32.98726421 34.12172407 -32.03927612 33.17498779 C-30.06948043 31.20665443 -28.10147472 29.23655399 -26.13476562 27.26513672 C-23.61639028 24.74102546 -21.09349781 22.22148411 -18.56927681 19.70322037 C-16.15052569 17.28894734 -13.73558648 14.87087667 -11.3203125 12.453125 C-10.415159 11.54999573 -9.51000549 10.64686646 -8.5774231 9.71636963 C-7.32504349 8.45926178 -7.32504349 8.45926178 -6.04736328 7.17675781 C-5.31204376 6.4406427 -4.57672424 5.70452759 -3.81912231 4.94610596 C-1.83592614 2.9304217 -1.83592614 2.9304217 0 0 Z " fill="#49BB9A" transform="translate(778,587)"/>
<path d="M0 0 C1.41110894 2.82221788 0.52254327 4.20255104 -0.375 7.1875 C-6.5575457 27.84413635 -4.10052154 51.42230008 5.85644531 70.43041992 C15.33469801 87.78159568 26.73914016 100.84792425 44.26538086 110.2980957 C47.24195978 111.91508053 49.77933014 113.41319819 52 116 C51.45472656 116.48726563 50.90945313 116.97453125 50.34765625 117.4765625 C35.64343723 131.30104192 24.1761964 152.71514664 22.79150391 173.06396484 C22.69588751 176.48237739 22.67798502 179.89281494 22.6875 183.3125 C22.67138672 184.45912109 22.65527344 185.60574219 22.63867188 186.78710938 C22.62449887 211.83081394 35.28932094 234.15991545 52.54101562 251.54394531 C53.02248047 252.02444336 53.50394531 252.50494141 54 253 C54.55880859 253.56041992 55.11761719 254.12083984 55.69335938 254.69824219 C57.12683174 256.13423532 58.56314274 257.5673938 60 259 C58.59419106 262.2234205 56.93269977 264.23034085 54.375 266.625 C46.31262242 274.51274124 40.09702586 283.56258232 34 293 C33 291.66666667 32 290.33333333 31 289 C30.22527344 287.97390625 29.45054687 286.9478125 28.65234375 285.890625 C15.04290556 267.71532607 3.46273526 249.2557779 -2 227 C-2.18981445 226.31180176 -2.37962891 225.62360352 -2.57519531 224.91455078 C-4.7041169 216.20174205 -4.21754613 207.27863656 -4.125 198.375 C-4.11494957 196.68620323 -4.10582737 194.99740066 -4.09765625 193.30859375 C-4.07580739 189.20558406 -4.04139154 185.10285718 -4 181 C-6.22087106 180.3577022 -8.4423428 179.71748115 -10.6640625 179.078125 C-11.9010791 178.72137695 -13.1380957 178.36462891 -14.41259766 177.99707031 C-18.58614074 176.83709005 -22.75919147 175.87740866 -27 175 C-27.14695312 173.89591797 -27.14695312 173.89591797 -27.296875 172.76953125 C-28.32902051 164.98510828 -28.32902051 164.98510828 -33 159 C-37.9457278 156.42749689 -42.89408151 154.93240477 -48.375 154 C-51.31528172 153.4507166 -52.97493802 153.0152817 -55.5625 151.4375 C-57.76885881 147.69628289 -58.43524481 144.33138789 -58 140 C-56.92904712 137.70208929 -55.63414259 135.66650962 -54.26953125 133.53125 C-52.26645014 129.53741444 -51.99093937 125.42070481 -51.5546875 121.015625 C-50.94982719 117.7272295 -49.7619116 115.80719076 -48 113 C-46.34588021 107.4079473 -46.62067768 102.98631753 -49.1875 97.75 C-51.28004147 94.04421426 -53.53538844 90.46871256 -56 87 C-52.07837689 82.23802909 -47.49929445 80.08832308 -41.9375 77.52734375 C-34.84075196 73.83741225 -31.80959936 69.37730519 -29 62 C-28.08741038 58.31911124 -27.56027013 54.63168359 -27.0625 50.875 C-24.10464252 31.74659874 -17.18329109 14.36875838 -2.0625 1.5 C-1.381875 1.005 -0.70125 0.51 0 0 Z " fill="#56C9E3" transform="translate(425,313)"/>
<path d="M0 0 C11.86848072 10.1042471 19.37305848 23.05662191 20.63696289 38.72875977 C21.47594656 60.31220364 17.45826832 77.42541607 2.7890625 93.77734375 C-3.23347178 100.15492865 -9.89892777 104.80503131 -17.5859375 108.96484375 C-18.35486328 109.3834668 -19.12378906 109.80208984 -19.91601562 110.23339844 C-22.39286089 111.55614755 -24.88852327 112.83108485 -27.3984375 114.08984375 C-28.17453369 114.49299805 -28.95062988 114.89615234 -29.75024414 115.31152344 C-36.14197595 118.37432752 -41.00602693 118.51517797 -47.70922852 116.24609375 C-49.84282917 115.37977853 -51.89697663 114.42315531 -53.9609375 113.40234375 C-54.69771729 113.04446777 -55.43449707 112.6865918 -56.19360352 112.31787109 C-75.76984445 102.54152677 -90.19049297 86.20633053 -97.19921875 65.42578125 C-98.92250446 59.49519933 -99.08243637 53.79665459 -99.0234375 47.65234375 C-99.01586426 46.54874512 -99.00829102 45.44514648 -99.00048828 44.30810547 C-98.83632356 36.18974039 -98.0325235 29.40560418 -94.5859375 21.96484375 C-93.94978516 20.54751953 -93.94978516 20.54751953 -93.30078125 19.1015625 C-86.08139054 4.56223247 -74.66306863 -4.51139566 -59.6640625 -10.08984375 C-39.81485535 -16.18566625 -16.26339736 -12.79944113 0 0 Z " fill="#21455A" transform="translate(542.5859375,296.03515625)"/>
<path d="M0 0 C4.77771161 -0.11697782 9.07329018 0.24559668 13.7512207 1.20581055 C14.70424828 1.39858833 14.70424828 1.39858833 15.67652893 1.59526062 C17.76108555 2.01887785 19.84341718 2.45246213 21.92578125 2.88671875 C23.39714507 3.18904773 24.86859765 3.49094501 26.34013367 3.79243469 C29.42504064 4.42610424 32.50888228 5.06466697 35.59204102 5.70678711 C39.48883573 6.51801088 43.38790968 7.31757884 47.28780365 8.11375046 C76.58115458 14.1025358 76.58115458 14.1025358 89.56176758 17.98022461 C93.14930182 19.04428273 96.74465564 19.96914265 100.375 20.875 C127.81910124 28.18952592 153.79559476 39.17582644 176 57 C176.99 57.66 177.98 58.32 179 59 C179 59.66 179 60.32 179 61 C179.56976563 61.24492188 180.13953125 61.48984375 180.7265625 61.7421875 C192.18314908 68.08071134 199.60809876 82.15562054 206 93 C206.43828125 93.73476563 206.8765625 94.46953125 207.328125 95.2265625 C210.28595475 100.5903881 211.13311284 105.98555033 212 112 C212.26063866 113.71761216 212.5224595 115.43504515 212.78515625 117.15234375 C213.53825657 122.09941113 214.27388796 127.04890536 215 132 C210.68697198 131.37075473 206.68604295 130.35279727 202.52734375 129.05859375 C195.24575837 126.94144296 188.08225633 125.91079388 180.5625 125.0625 C146.69736856 120.87167684 116.52354426 112.26761739 90 90 C89.4647168 89.55495117 88.92943359 89.10990234 88.37792969 88.65136719 C81.14580469 82.62799939 74.23028257 76.44458563 67.6953125 69.66796875 C65.68065662 67.6737514 63.67858482 65.85138528 61.52563477 64.02124023 C56.06805371 59.26355438 50.99741775 54.1221248 45.89453125 48.9921875 C44.84199235 47.9377779 43.78922828 46.88359302 42.73625183 45.82962036 C39.98565409 43.07523625 37.2380709 40.31786471 34.4911499 37.55981445 C31.69969731 34.75811073 28.90539845 31.95924895 26.11132812 29.16015625 C21.19519389 24.23449875 16.28153355 19.3063855 11.3697052 14.37643433 C9.69866128 12.70064523 8.02209613 11.03035287 6.34159851 9.36404419 C0 2.96165751 0 2.96165751 0 0 Z " fill="#57C9E5" transform="translate(227,585)"/>
<path d="M0 0 C-5.56924211 6.60092368 -11.57281454 12.71997047 -17.68359375 18.81640625 C-18.70832108 19.84180924 -19.73290011 20.86736046 -20.75733948 21.89305115 C-22.8930043 24.03018063 -25.03044208 26.16551609 -27.16918945 28.29956055 C-29.89008416 31.01475875 -32.6064631 33.73442333 -35.32151699 36.45546055 C-37.43283814 38.57042075 -39.54656675 40.68296207 -41.66099739 42.79481316 C-42.66271091 43.79586663 -43.66370177 44.79764385 -44.663908 45.80020332 C-49.75387547 50.89952011 -54.87987756 55.87933007 -60.34901428 60.57139587 C-62.32141185 62.27811888 -64.17438755 64.0752123 -66 65.9375 C-66.66 66.60523438 -67.32 67.27296875 -68 67.9609375 C-68.66 68.63382813 -69.32 69.30671875 -70 70 C-74.59968961 74.68952729 -79.26540596 79.19930636 -84.24511719 83.48583984 C-86.24935997 85.2151545 -88.18358554 87.01323932 -90.125 88.8125 C-104.00691874 101.06541807 -121.0560971 111.96921585 -139 117 C-139.92570801 117.26707764 -139.92570801 117.26707764 -140.87011719 117.53955078 C-150.30029934 120.19770815 -159.82496037 122.03187554 -169.5078125 123.4765625 C-170.354646 123.60316254 -171.20147949 123.72976257 -172.07397461 123.86019897 C-176.33886263 124.49201752 -180.60569954 125.10109885 -184.87792969 125.68115234 C-194.05293921 126.96857429 -202.48277672 128.82926471 -211.19580078 132.01171875 C-214 133 -214 133 -216 133 C-215.4031424 127.65636898 -214.73073512 122.32695311 -214 117 C-213.82855469 115.73285156 -213.65710938 114.46570313 -213.48046875 113.16015625 C-210.29589553 93.9088975 -199.1378686 78.93046396 -186 65 C-185.44957031 64.39671875 -184.89914062 63.7934375 -184.33203125 63.171875 C-167.08138814 44.94156574 -142.40932871 33.94054519 -119 26 C-118.13987305 25.70657715 -117.27974609 25.4131543 -116.39355469 25.11083984 C-87.22681703 15.31588847 -56.91323872 9.48904333 -26.8125 3.375 C-25.14441284 3.03266327 -25.14441284 3.03266327 -23.44262695 2.68341064 C-20.28257994 2.03728238 -17.12034116 1.40337187 -13.95703125 0.7734375 C-13.00778275 0.57812439 -12.05853424 0.38281128 -11.08052063 0.18157959 C-9.76606209 -0.07579987 -9.76606209 -0.07579987 -8.42504883 -0.33837891 C-7.66331863 -0.4911026 -6.90158844 -0.64382629 -6.11677551 -0.80117798 C-3.82781197 -1.01617308 -2.18069616 -0.68498268 0 0 Z " fill="#B0F2CA" transform="translate(781,585)"/>
<path d="M0 0 C4.68192497 2.88011432 8.26148757 6.05378181 11.9375 10.125 C12.46110107 10.70048584 12.98470215 11.27597168 13.52416992 11.86889648 C17.79785831 16.63735641 21.58641755 21.57544571 25 27 C25.58265625 27.91007813 26.1653125 28.82015625 26.765625 29.7578125 C42.51002846 55.42803553 48.0603512 89.18464404 41.51489258 118.69580078 C40.50558955 122.52737847 39.3273842 126.26755334 38 130 C37.65509521 131.01416992 37.65509521 131.01416992 37.30322266 132.04882812 C32.06213306 147.22684555 24.64654478 159.27279239 13.40576172 170.57958984 C12.1260266 171.87266017 10.8757074 173.19467665 9.62890625 174.51953125 C6.20892491 178.10760241 3.75193339 180.34538168 -1 182 C-22.82557432 163.19329016 -38.4122027 137.93348729 -42 109 C-42.29624805 103.7886472 -42.34098685 98.59228322 -42.3125 93.375 C-42.31034485 92.66656952 -42.3081897 91.95813904 -42.30596924 91.22824097 C-42.15118131 59.53384759 -31.7911167 33.16733792 -9.8671875 10.078125 C-7.90435931 8.00823345 -6.05782965 5.88464333 -4.2578125 3.671875 C-2 1 -2 1 0 0 Z " fill="#2CA6D0" transform="translate(503,589)"/>
<path d="M0 0 C11.63152029 5.29626959 18.89075041 19.52776138 23.30029297 30.90771484 C25.65066954 37.93588206 26.96525851 45.31801215 28.48583984 52.56005859 C30.99871345 65.22832826 30.99871345 65.22832826 39.265625 74.6171875 C43.24675569 77.07181102 47.32066377 79.16429512 51.5625 81.125 C55 83 55 83 55.890625 84.8671875 C56.04090218 87.79759253 55.04388234 88.77408019 53.1875 91 C48.26346221 96.9883785 47.56813659 100.98998297 47.671875 108.76171875 C48.05151413 112.50839544 49.07109041 114.73857896 50.9921875 117.90234375 C52.29584608 120.61577265 52.59814438 123.14761517 53 126.125 C53.53864866 130.04244477 53.85932516 131.79312524 56.125 135.125 C58.50491369 138.774201 58.47808844 141.36659724 58.53125 145.6328125 C57.79835065 148.89852578 56.67432129 150.00404314 54 152 C50.72265625 152.94140625 50.72265625 152.94140625 47.0625 153.5625 C42.31785225 154.37949282 39.0396343 155.39122007 35 158 C34.34 158 33.68 158 33 158 C31.64833221 160.34852279 30.97879306 162.13765576 30.5625 164.83984375 C29.89074833 168.53914288 29.15570921 170.89236375 27 174 C22.17335392 176.62036951 16.51094199 177.38997752 11.18359375 178.4921875 C0.0116539 181.09031305 -9.37898629 188.57262925 -18.15234375 195.58203125 C-20 197 -20 197 -22 198 C-21.89300781 196.77667969 -21.78601563 195.55335938 -21.67578125 194.29296875 C-19.52706789 166.01714653 -26.7276063 143.34029581 -44.82421875 121.33984375 C-46.98209421 118.89925129 -46.98209421 118.89925129 -49.76953125 116.81640625 C-50.87361328 115.91728516 -50.87361328 115.91728516 -52 115 C-52 114.34 -52 113.68 -52 113 C-51.48727539 112.75467529 -50.97455078 112.50935059 -50.44628906 112.2565918 C-39.0865917 106.74843581 -29.70490271 101.22023295 -21 92 C-20.32839844 91.31164062 -19.65679688 90.62328125 -18.96484375 89.9140625 C-1.08368744 70.65743263 4.99328386 46.59582261 4.20556641 21.01318359 C3.7156084 13.83140007 1.93277974 6.91141328 0 0 Z " fill="#7BE2AD" transform="translate(581,314)"/>
<path d="M0 0 C18.54756743 11.34779285 26.91991916 24.22267002 32.0625 44.98828125 C34.91578696 63.68022233 30.01772813 81.49299139 19.70703125 97.1328125 C13.92867661 104.8166631 6.5778241 111.10488251 -0.5546875 117.49609375 C-11.43760714 112.57906717 -21.2051192 99.80870084 -26.5546875 89.49609375 C-27.02132813 88.60535156 -27.48796875 87.71460938 -27.96875 86.796875 C-36.02341415 70.28716867 -37.31407925 51.02022167 -31.5546875 33.49609375 C-26.59080201 21.02584484 -19.13514087 12.14013474 -8.8046875 3.74609375 C-8.26183105 3.29073242 -7.71897461 2.83537109 -7.15966797 2.36621094 C-3.26768748 -0.64454386 -3.26768748 -0.64454386 0 0 Z " fill="#55C6E2" transform="translate(504.5546875,439.50390625)"/>
<path d="M0 0 C9.94663732 5.39657982 18.34753261 12.02333908 24.84375 21.37109375 C26.03744869 23.14899087 26.03744869 23.14899087 28 25 C28.63690945 26.69355266 29.26713402 28.39016148 29.85083008 30.1027832 C36.43309902 49.38442798 48.49615349 63.98413337 63 78 C61.59419106 81.2234205 59.93269977 83.23034085 57.375 85.625 C49.31262242 93.51274124 43.09702586 102.56258232 37 112 C36 110.66666667 35 109.33333333 34 108 C32.83791016 106.46085938 32.83791016 106.46085938 31.65234375 104.890625 C18.05487055 86.73130522 6.42016092 68.25292722 1 46 C0.81091064 45.26612061 0.62182129 44.53224121 0.42700195 43.77612305 C-1.3106943 36.30349119 -1.26130807 28.95357793 -1.1875 21.3125 C-1.18685547 20.03310547 -1.18621094 18.75371094 -1.18554688 17.43554688 C-1.15783376 11.50801904 -0.93126395 5.86487277 0 0 Z " fill="#36ABD2" transform="translate(422,494)"/>
<path d="M0 0 C2.81469535 2.06106495 4.60067882 3.73195921 5.5 7.1640625 C5.76062506 12.47542155 4.48915461 15.91436992 0.92578125 19.97265625 C-2.50053456 22.57193031 -5.89693534 22.53906756 -10.07421875 21.97265625 C-13.34447615 19.8615594 -16.31670715 17.48767945 -18.07421875 13.97265625 C-18.48132468 9.73875463 -18.3299784 7.45677273 -16.32421875 3.66015625 C-12.0397704 -1.45737928 -6.19833361 -3.06998444 0 0 Z " fill="#F6FAF4" transform="translate(510.07421875,337.02734375)"/>
<path d="M0 0 C0.66 0 1.32 0 2 0 C-2.404758 9.08219149 -8.08670403 16.55889202 -15.08740234 23.75952148 C-18.03971263 26.4042416 -18.03971263 26.4042416 -19 30 C-21 32 -21 32 -23.5625 34 C-26.05309672 35.76637442 -26.05309672 35.76637442 -27 38 C-26.14921875 37.84144531 -25.2984375 37.68289063 -24.421875 37.51953125 C-21.00180849 37.00027458 -17.70552616 36.8195343 -14.25 36.6875 C-6.45499823 36.28959135 1.22278894 35.21991739 8.9375 34.0625 C10.10571289 33.89258545 11.27392578 33.7226709 12.47753906 33.54760742 C13.56647461 33.37849854 14.65541016 33.20938965 15.77734375 33.03515625 C17.25062134 32.80904663 17.25062134 32.80904663 18.75366211 32.57836914 C19.49495361 32.38750732 20.23624512 32.19664551 21 32 C21.33 31.34 21.66 30.68 22 30 C23.134375 30.020625 24.26875 30.04125 25.4375 30.0625 C28.81575674 30.41577477 28.81575674 30.41577477 30 29 C32.33297433 28.95907063 34.66705225 28.95758277 37 29 C33.71191408 31.19205728 30.72029535 32.00040383 26.9375 32.875 C26.21087158 33.04427002 25.48424316 33.21354004 24.7355957 33.38793945 C17.76682237 34.94236326 10.74137716 36.09374254 3.6875 37.1875 C2.61556396 37.35427246 1.54362793 37.52104492 0.43920898 37.69287109 C-9.26248713 39.14346661 -18.93336568 40.16066634 -28.75 40.0625 C-29.94109375 40.05347656 -31.1321875 40.04445313 -32.359375 40.03515625 C-33.66648437 40.01775391 -33.66648437 40.01775391 -35 40 C-32.15421516 37.06528438 -29.24308235 34.33241032 -26.125 31.6875 C-22.6939448 28.71263378 -19.70873504 25.55625218 -16.78125 22.08984375 C-15.56202091 20.65938856 -14.30990234 19.25650192 -13.03125 17.87890625 C-8.46603332 12.95373979 -4.85868784 7.87670566 -1.4453125 2.08984375 C-0.72988281 1.05537109 -0.72988281 1.05537109 0 0 Z " fill="#55AA93" transform="translate(549,754)"/>
<path d="M0 0 C3.4375 0.5625 3.4375 0.5625 5.8125 2.1875 C7.83744536 5.14703553 8.4375 6.9676801 8.4375 10.5625 C6.66710551 13.30966387 5.37458156 15.09395922 2.4375 16.5625 C-1.61513598 17.10285146 -3.09980231 16.90449395 -6.4375 14.4375 C-8.5625 11.5625 -8.5625 11.5625 -9.1875 8.5625 C-8.06378731 3.1686791 -5.3834601 0.85002002 0 0 Z " fill="#F2FCF6" transform="translate(699.5625,444.4375)"/>
<path d="M0 0 C25.92357192 -0.51847144 54.40823463 0.92446754 79 10 C79 10.33 79 10.66 79 11 C73.1517077 11.30297276 68.22070731 9.89229244 62.65820312 8.33398438 C58.33609319 7.13727685 58.33609319 7.13727685 54 8 C53.34 7.34 52.68 6.68 52 6 C45.05944518 4.16877869 38.12383419 3.80231258 30.984375 4.125 C27.88854645 3.99533179 25.18872625 3.28747181 22.20800781 2.48535156 C18.18263015 1.60051623 14.10712544 1.52692908 10 1.375 C5.545 1.189375 5.545 1.189375 1 1 C1.33 9.25 1.66 17.5 2 26 C6.29 26.33 10.58 26.66 15 27 C15 27.66 15 28.32 15 29 C15.71027344 28.98839844 16.42054688 28.97679687 17.15234375 28.96484375 C18.07144531 28.95582031 18.99054687 28.94679688 19.9375 28.9375 C20.85402344 28.92589844 21.77054688 28.91429687 22.71484375 28.90234375 C25 29 25 29 26 30 C27.34747084 30.23075082 28.70377565 30.41153063 30.0625 30.5625 C31.361875 30.706875 32.66125 30.85125 34 31 C34 31.66 34 32.32 34 33 C29.20886147 32.52874047 24.53469167 31.93883336 19.8125 31 C13.27087596 29.87455931 6.6208617 29.47291869 0 29 C0 19.43 0 9.86 0 0 Z " fill="#72C5A3" transform="translate(502,232)"/>
<path d="M0 0 C2.4375 2.1875 2.4375 2.1875 4 5 C4 8.63075827 3.41176127 10.42048414 1.3125 13.375 C-1 15 -1 15 -3.9375 15.5625 C-8.08574477 14.80057749 -9.51397551 13.36344489 -12 10 C-12.5625 6.9375 -12.5625 6.9375 -12 4 C-8.24461686 -0.6316392 -5.77922435 -1.61818282 0 0 Z " fill="#EFF8F0" transform="translate(346,326)"/>
<path d="M0 0 C2.5 2.1875 2.5 2.1875 4 5 C4 8.27614417 3.23771094 9.67424798 1.3125 12.3125 C-1 14 -1 14 -4 14.5 C-7 14 -7 14 -9.375 12.375 C-11.48706506 9.28813568 -11.61195145 7.6717087 -11 4 C-8.07075041 -0.45245938 -5.11843736 -0.822606 0 0 Z " fill="#F3F8F3" transform="translate(307,410)"/>
<path d="M0 0 C0.66 0 1.32 0 2 0 C0.29977612 7.12647031 -1.57919742 14.0834212 -4 21 C-4.33 21 -4.66 21 -5 21 C-5.23509196 16.18061476 -4.45184478 12.53701494 -3 8 C-7.15300707 11.3947333 -10.73067044 14.71605092 -14 19 C-15.31200404 20.35432675 -16.64631404 21.68733482 -18 23 C-18.763125 23.78375 -19.52625 24.5675 -20.3125 25.375 C-22.29361523 27.31004278 -24.2481827 29.05680518 -26.375 30.8125 C-29.79951247 33.68370696 -32.6024096 36.90482486 -35.421875 40.36328125 C-37 42 -37 42 -40 43 C-40 43.66 -40 44.32 -40 45 C-41.50390625 46.48046875 -41.50390625 46.48046875 -43.5625 48.1875 C-47.58675247 51.60201725 -51.32190005 55.21845349 -55 59 C-55.99 58.67 -56.98 58.34 -58 58 C-57.08718262 57.15791992 -56.17436523 56.31583984 -55.23388672 55.44824219 C-44.52289507 45.51465697 -34.12962128 35.2846144 -23.81298828 24.94335938 C-21.08352401 22.20844113 -18.34863002 19.47903157 -15.61328125 16.75 C-13.86947019 15.00552963 -12.12596856 13.26074988 -10.3828125 11.515625 C-9.56837677 10.7032135 -8.75394104 9.890802 -7.91482544 9.05377197 C-7.16578949 8.30158386 -6.41675354 7.54939575 -5.64501953 6.77441406 C-4.98712433 6.11572327 -4.32922913 5.45703247 -3.65139771 4.77838135 C-1.81545927 2.89619923 -1.81545927 2.89619923 0 0 Z " fill="#67CAA0" transform="translate(778,587)"/>
<path d="M0 0 C0.99 0.495 0.99 0.495 2 1 C2.75944316 3.71144942 3.41160574 6.37609555 4 9.125 C4.33168947 10.62796789 4.66500683 12.13057751 5 13.6328125 C5.16322754 14.37297607 5.32645508 15.11313965 5.49462891 15.87573242 C5.94991473 17.78947249 6.51178144 19.67709673 7.0859375 21.55859375 C8.10584103 25.39848696 8.41452617 28.97357621 8.625 32.9375 C8.66367187 33.62134766 8.70234375 34.30519531 8.7421875 35.00976562 C8.83522412 36.67279513 8.91863787 38.33635847 9 40 C9.62390625 39.37609375 10.2478125 38.7521875 10.890625 38.109375 C12.59375 36.40625 14.296875 34.703125 16 33 C14.66900252 37.28094864 13.02641155 41.19040322 11 45.1875 C10.484375 46.21230469 9.96875 47.23710938 9.4375 48.29296875 C8 51 8 51 6 54 C5.9906543 53.39341553 5.98130859 52.78683105 5.97167969 52.16186523 C5.69252494 37.5705563 4.25531297 23.66319538 1.44140625 9.34716797 C0.85739525 6.24170241 0.41250645 3.13247084 0 0 Z " fill="#5FAA96" transform="translate(563,636)"/>
<path d="M0 0 C1.14792304 3.44376912 0.88418074 3.98968385 -0.4140625 7.2265625 C-0.75622803 8.08113037 -1.09839355 8.93569824 -1.45092773 9.81616211 C-1.83837158 10.74307861 -2.22581543 11.66999512 -2.625 12.625 C-3.22646851 14.07434937 -3.22646851 14.07434937 -3.84008789 15.55297852 C-11.21666248 32.91869347 -19.96212823 49.6765437 -31 65 C-31.33 64.34 -31.66 63.68 -32 63 C-31.0390625 61.16015625 -31.0390625 61.16015625 -29.625 59.0625 C-27.99474529 56.6262255 -26.93703755 54.81111264 -26 52 C-25.34 52 -24.68 52 -24 52 C-23.34 49.69 -22.68 47.38 -22 45 C-21.34 45 -20.68 45 -20 45 C-19.84144531 44.443125 -19.68289063 43.88625 -19.51953125 43.3125 C-17.980658 38.27927921 -16.08214032 34.15509373 -13.0859375 29.82421875 C-11.93497175 27.8907619 -11.43643198 26.19670763 -11 24 C-10.34 24 -9.68 24 -9 24 C-8.731875 22.80375 -8.46375 21.6075 -8.1875 20.375 C-7.25750413 16.60851671 -5.76730915 13.45777878 -4 10 C-3.30092586 7.26427415 -3.30092586 7.26427415 -3 5 C-2.34 5 -1.68 5 -1 5 C-0.67 3.35 -0.34 1.7 0 0 Z " fill="#70C9A5" transform="translate(772,608)"/>
<path d="M0 0 C0.66 0 1.32 0 2 0 C3.54586876 3.09173752 3.29359521 5.59429552 3 9 C1 11.4375 1 11.4375 -1 13 C0.05875074 16.40312738 1.00902154 19.01353231 3 22 C4.60022399 30.16114237 5.3265341 38.98365735 0.53125 46.21484375 C-0.93586077 48.18367872 -2.43653025 50.10711996 -4 52 C-4.99 51.67 -5.98 51.34 -7 51 C-6.236875 50.29875 -5.47375 49.5975 -4.6875 48.875 C0.56220389 43.2590377 2.18941307 37.57652276 2 30 C1.11834115 25.045223 -0.33023315 20.68272848 -3.25 16.5625 C-3.8275 15.716875 -4.405 14.87125 -5 14 C-4.67 13.01 -4.34 12.02 -4 11 C-1.4375 9.8125 -1.4375 9.8125 1 9 C1.07427838 5.65747276 1.06546953 3.1964086 0 0 Z " fill="#69BF9D" transform="translate(660,427)"/>
<path d="M0 0 C0.33 0 0.66 0 1 0 C0.85966889 1.97956441 0.7125877 3.95865141 0.5625 5.9375 C0.48128906 7.03964844 0.40007812 8.14179688 0.31640625 9.27734375 C0 12 0 12 -1 13 C-1.22019511 17.43239804 -1.18578732 21.87053629 -1.18530273 26.30786133 C-1.18746736 28.52900992 -1.20555405 30.74964398 -1.22460938 32.97070312 C-1.25152225 39.92276963 -1.10884542 46.30958453 1 53 C1.125 56 1.125 56 1 58 C-7.64034256 42.29711657 -5.48993388 19.68022068 -1 3 C-0.67 2.01 -0.34 1.02 0 0 Z " fill="#E1FCFC" transform="translate(425,315)"/>
<path d="M0 0 C0.33 0.99 0.66 1.98 1 3 C0.01 4.485 0.01 4.485 -1 6 C-1.66 6 -2.32 6 -3 6 C-3.268125 6.680625 -3.53625 7.36125 -3.8125 8.0625 C-4.63783583 10.10412022 -5.51721602 12.12438266 -6.4375 14.125 C-8.21382973 18.20063979 -9.26162168 22.44102318 -10.3515625 26.7421875 C-11 29 -11 29 -12 30 C-12.20699563 31.49496842 -12.36679259 32.9966592 -12.5 34.5 C-12.88888889 38.88888889 -12.88888889 38.88888889 -14 40 C-14.39454223 41.84599688 -14.74176866 43.70225822 -15.0625 45.5625 C-15.23910156 46.57441406 -15.41570312 47.58632813 -15.59765625 48.62890625 C-15.73042969 49.41136719 -15.86320312 50.19382812 -16 51 C-16.33 51 -16.66 51 -17 51 C-16.36107879 32.34350079 -11.46640382 14.93606492 0 0 Z " fill="#6FC5D6" transform="translate(414,324)"/>
<path d="M0 0 C4.58793951 3.95072569 7.40821762 8.10104176 9 14 C9.39872173 20.13272002 7.89118031 24.66501536 4.91015625 29.921875 C3.51447739 33.10857524 3.46435965 36.25777311 3.37109375 39.703125 C3 42 3 42 0 46 C0.33 41.05 0.66 36.1 1 31 C1.66 31 2.32 31 3 31 C3.2165625 29.8553125 3.2165625 29.8553125 3.4375 28.6875 C4 26 4 26 5 23 C5.66 23 6.32 23 7 23 C6.9721701 15.55550155 5.89863086 10.79024751 1.27734375 4.875 C0 3 0 3 0 0 Z " fill="#DFFCFC" transform="translate(370,402)"/>
<path d="M0 0 C1.33617352 0.97528737 2.6688751 1.95533319 4 2.9375 C5.11375 3.75541016 5.11375 3.75541016 6.25 4.58984375 C6.8275 5.05519531 7.405 5.52054688 8 6 C8 6.33 8 6.66 8 7 C-0.79062398 7.20643344 -9.39607202 6.39614855 -18.125 5.5 C-19.57287163 5.35501823 -21.02078811 5.21048369 -22.46875 5.06640625 C-25.97969823 4.71608615 -29.49000274 4.35973804 -33 4 C-33 3.67 -33 3.34 -33 3 C-28.43726776 3.1390777 -23.87488309 3.28743634 -19.3125 3.4375 C-17.37213867 3.49647461 -17.37213867 3.49647461 -15.39257812 3.55664062 C-14.14541016 3.59853516 -12.89824219 3.64042969 -11.61328125 3.68359375 C-10.46641846 3.72025146 -9.31955566 3.75690918 -8.13793945 3.79467773 C-5.33006722 3.97840298 -2.73774186 4.3699382 0 5 C0 3.35 0 1.7 0 0 Z " fill="#439AB8" transform="translate(484,787)"/>
<path d="M0 0 C1.41110894 2.82221788 0.52254327 4.20255104 -0.375 7.1875 C-2.77763154 15.21498388 -3.23223814 23.11598395 -3.5625 31.4375 C-3.60568359 32.45521484 -3.64886719 33.47292969 -3.69335938 34.52148438 C-3.79868582 37.01421028 -3.90081672 39.50702338 -4 42 C-4.33 42 -4.66 42 -5 42 C-5.02946035 38.37501758 -5.04695131 34.75006668 -5.0625 31.125 C-5.07087891 30.11179687 -5.07925781 29.09859375 -5.08789062 28.0546875 C-5.10845895 21.63736985 -4.78323679 15.37009043 -4 9 C-4.99 9 -5.98 9 -7 9 C-7.33 9.66 -7.66 10.32 -8 11 C-8.66 10.67 -9.32 10.34 -10 10 C-6.92118304 6.12948725 -3.99926986 2.97088618 0 0 Z " fill="#71C4D5" transform="translate(425,313)"/>
<path d="M0 0 C0.33 0.99 0.66 1.98 1 3 C-0.61099789 5.14799719 -2.17716979 7.05493919 -4 9 C-4.556875 9.61875 -5.11375 10.2375 -5.6875 10.875 C-7 12 -7 12 -9 12 C-9.33 12.66 -9.66 13.32 -10 14 C-11.01210474 14.94920557 -12.05943188 15.86123018 -13.125 16.75 C-13.74761719 17.27335938 -14.37023437 17.79671875 -15.01171875 18.3359375 C-15.66785156 18.88507812 -16.32398438 19.43421875 -17 20 C-18.31393411 21.12332471 -19.62650897 22.24824192 -20.9375 23.375 C-21.95833333 24.25 -22.97916667 25.125 -24 26 C-24 23 -24 23 -22.55053711 21.30175781 C-21.8828833 20.69170898 -21.21522949 20.08166016 -20.52734375 19.453125 C-19.42422852 18.4321875 -19.42422852 18.4321875 -18.29882812 17.390625 C-17.51958984 16.68421875 -16.74035156 15.9778125 -15.9375 15.25 C-14.42480032 13.86044211 -12.9130719 12.46982609 -11.40234375 11.078125 C-10.66612793 10.40201172 -9.92991211 9.72589844 -9.17138672 9.02929688 C-6.03463937 6.09781004 -3.00554134 3.06523012 0 0 Z " fill="#62CA9E" transform="translate(719,646)"/>
<path d="M0 0 C0.33 0 0.66 0 1 0 C2.18817737 8.92453224 1.91180531 17.66248267 1.5625 26.625 C1.50914994 28.12107192 1.45641097 29.61716576 1.40429688 31.11328125 C1.27656937 34.74246712 1.14059588 38.37128717 1 42 C0.67 42 0.34 42 0 42 C-0.81516688 37.71895725 -1.12849919 33.6719284 -1.1328125 29.31640625 C-1.13410156 28.05892578 -1.13539063 26.80144531 -1.13671875 25.50585938 C-1.13285156 24.20455078 -1.12898438 22.90324219 -1.125 21.5625 C-1.12886719 20.26505859 -1.13273437 18.96761719 -1.13671875 17.63085938 C-1.13542969 16.37208984 -1.13414062 15.11332031 -1.1328125 13.81640625 C-1.13112061 12.10626343 -1.13112061 12.10626343 -1.12939453 10.36157227 C-0.99420419 6.84942927 -0.55481934 3.46858507 0 0 Z " fill="#41A1C4" transform="translate(422,494)"/>
<path d="M0 0 C1.32 0.33 2.64 0.66 4 1 C3.01 1 2.02 1 1 1 C1.928125 2.3921875 1.928125 2.3921875 2.875 3.8125 C4.9375 6.90625 4.9375 6.90625 7 10 C6.67 10.33 6.34 10.66 6 11 C6.09002398 13.02408755 6.24641038 15.04544287 6.4375 17.0625 C6.53933594 18.16722656 6.64117187 19.27195312 6.74609375 20.41015625 C6.82988281 21.26480469 6.91367188 22.11945312 7 23 C7.66 23 8.32 23 9 23 C10.29243536 27.1196377 11.26252625 30.66831683 11 35 C7.68530353 30.0279553 6.25232462 24.26870715 4.375 18.625 C3.95476562 17.39265625 3.53453125 16.1603125 3.1015625 14.890625 C2.70453125 13.70210937 2.3075 12.51359375 1.8984375 11.2890625 C1.53411621 10.20318848 1.16979492 9.11731445 0.79443359 7.99853516 C0.0454462 5.17153358 -0.16356252 2.90441267 0 0 Z " fill="#40A5C3" transform="translate(226,584)"/>
<path d="M0 0 C0.33 0 0.66 0 1 0 C1.28362798 3.21445045 1.07846689 4.84988943 -0.4375 7.75 C-2.15904141 11.33080612 -2.50962654 14.13477158 -2.7890625 18.046875 C-3 20 -3 20 -4 22 C-4.0980731 24.86431142 -4.13902649 27.69875884 -4.125 30.5625 C-4.12886719 31.35591797 -4.13273437 32.14933594 -4.13671875 32.96679688 C-4.50440225 36.7914162 -4.50440225 36.7914162 -3 40 C-2.85884839 42.67058851 -2.95752893 45.32432238 -3 48 C-8.36218509 39.95672237 -6.91158734 26.12246543 -5.43359375 16.88671875 C-4.2163153 10.95328298 -2.7119055 5.423811 0 0 Z " fill="#6CC5D5" transform="translate(476,466)"/>
<path d="M0 0 C0.66 0 1.32 0 2 0 C1.649375 0.639375 1.29875 1.27875 0.9375 1.9375 C-0.32265859 6.05401805 -0.15844107 9.84827161 1 14 C3.0985833 17.26790462 6.06264152 17.7080054 9.70703125 18.5390625 C10.42246094 18.69117188 11.13789063 18.84328125 11.875 19 C16.79679068 20.05787122 20.7793982 21.08695719 25 24 C24.01 24.33 23.02 24.66 22 25 C21.319375 24.54625 20.63875 24.0925 19.9375 23.625 C16.9054356 21.94768778 15.55246577 21.79015169 12.1875 21.625 C6.97962058 21.24298489 2.79841755 19.67940708 -1 16 C-2.0554479 13.17374508 -2.16211662 10.437816 -2.1875 7.4375 C-2.20167969 6.67308594 -2.21585937 5.90867187 -2.23046875 5.12109375 C-2 3 -2 3 0 0 Z " fill="#E3FDFD" transform="translate(368,448)"/>
<path d="M0 0 C0.99 0.495 0.99 0.495 2 1 C2.4140625 4.16015625 2.4140625 4.16015625 2.625 8.0625 C2.69976563 9.35285156 2.77453125 10.64320313 2.8515625 11.97265625 C2.90054688 12.97167969 2.94953125 13.97070312 3 15 C5.91020046 12.18600451 8.02852473 9.54865549 10 6 C10.33 6.66 10.66 7.32 11 8 C9.80407001 10.71372755 8.55273934 13.31097355 7.1875 15.9375 C6.81818359 16.66646484 6.44886719 17.39542969 6.06835938 18.14648438 C4.49624101 21.22580419 2.92201329 24.11698006 1 27 C0.67 18.09 0.34 9.18 0 0 Z " fill="#61AE96" transform="translate(568,663)"/>
<path d="M0 0 C13.0347084 0.65692164 26.00906728 1.75474107 39 3 C39 3.33 39 3.66 39 4 C35.20834926 4.0289337 31.41672673 4.04677601 27.625 4.0625 C26.54476563 4.07087891 25.46453125 4.07925781 24.3515625 4.08789062 C22.8046875 4.09272461 22.8046875 4.09272461 21.2265625 4.09765625 C20.27346191 4.10289307 19.32036133 4.10812988 18.33837891 4.11352539 C16 4 16 4 14 3 C10.62583985 2.72357336 7.25198439 2.55294991 3.87109375 2.37890625 C2.92363281 2.25386719 1.97617187 2.12882813 1 2 C0.67 1.34 0.34 0.68 0 0 Z " fill="#E0F9FC" transform="translate(452,791)"/>
<path d="M0 0 C0.33 0 0.66 0 1 0 C1.09765625 6.15234375 1.09765625 6.15234375 1 8 C0.67 8.33 0.34 8.66 0 9 C-0.12375 10.2375 -0.2475 11.475 -0.375 12.75 C-0.80582916 16.54668201 -1.90313412 18.7740525 -4 22 C-5.09418978 24.63892829 -6.04151367 27.30710982 -7 30 C-7.66 30 -8.32 30 -9 30 C-8.82041748 29.47865479 -8.64083496 28.95730957 -8.45581055 28.42016602 C-6.38168954 22.31024324 -4.56259363 16.14709149 -2.8125 9.9375 C-2.53986328 8.97650391 -2.26722656 8.01550781 -1.98632812 7.02539062 C-1.32238201 4.68410697 -0.66030709 2.34231204 0 0 Z " fill="#DEFBFC" transform="translate(544,704)"/>
<path d="M0 0 C2 1 2 1 3.1171875 3.4765625 C4.21692572 7.86578319 4.21831431 11.87437914 4.125 16.375 C4.11597656 17.20644531 4.10695313 18.03789062 4.09765625 18.89453125 C4.0742622 20.92981337 4.03839725 22.96494564 4 25 C3.34 25 2.68 25 2 25 C1.93941406 23.865625 1.87882813 22.73125 1.81640625 21.5625 C1.73191506 20.04165865 1.64727149 18.52082575 1.5625 17 C1.52318359 16.25621094 1.48386719 15.51242187 1.44335938 14.74609375 C1.16338273 9.79266082 0.66489429 4.91686531 0 0 Z " fill="#E0FDFD" transform="translate(535,479)"/>
<path d="M0 0 C3.98682679 3.87608161 7.64328181 7.95756212 11.25 12.1875 C11.79140625 12.81591797 12.3328125 13.44433594 12.890625 14.09179688 C16.87323778 18.74647556 16.87323778 18.74647556 18 21 C17.01 21 16.02 21 15 21 C15 20.34 15 19.68 15 19 C14.01 18.67 13.02 18.34 12 18 C10.42940631 16.11927096 8.93890698 14.17079346 7.5 12.1875 C6.7265625 11.12917969 5.953125 10.07085938 5.15625 8.98046875 C4.4446875 7.99691406 3.733125 7.01335938 3 6 C2.4121875 5.25363281 1.824375 4.50726562 1.21875 3.73828125 C0 2 0 2 0 0 Z " fill="#D7F9FC" transform="translate(271,682)"/>
<path d="M0 0 C3.1234786 3.61269814 4.60345097 7.58788804 6.25 12 C6.53101563 12.7115625 6.81203125 13.423125 7.1015625 14.15625 C8.50999397 17.8934741 9.2273703 20.19367838 8 24 C5.6886428 19.66754906 3.85139387 15.86510782 3 11 C2.24968455 8.93663251 1.44806153 6.90097428 0.62109375 4.8671875 C0 3 0 3 0 0 Z " fill="#73C9A7" transform="translate(764,400)"/>
<path d="M0 0 C0.33 0.99 0.66 1.98 1 3 C-0.73046875 5.48828125 -0.73046875 5.48828125 -3.1875 8.3125 C-7.0541834 12.8211018 -7.0541834 12.8211018 -10.4375 17.6875 C-10.953125 18.450625 -11.46875 19.21375 -12 20 C-12.66 20 -13.32 20 -14 20 C-14 20.66 -14 21.32 -14 22 C-14.66 21.67 -15.32 21.34 -16 21 C-15.43285278 20.2589502 -15.43285278 20.2589502 -14.85424805 19.50292969 C-13.13180136 17.25210406 -11.40964796 15.00105419 -9.6875 12.75 C-9.09259766 11.97269531 -8.49769531 11.19539062 -7.88476562 10.39453125 C-7.01948242 9.26337891 -7.01948242 9.26337891 -6.13671875 8.109375 C-5.60780029 7.41811523 -5.07888184 6.72685547 -4.53393555 6.01464844 C-3.01289527 4.01693645 -1.50398687 2.01057222 0 0 Z " fill="#DDFBED" transform="translate(741,672)"/>
<path d="M0 0 C4.84834863 1.42773457 8.92013581 3.46813026 13.25 6 C13.87390625 6.35578125 14.4978125 6.7115625 15.140625 7.078125 C17.69678644 8.55452859 19.90361651 9.90361651 22 12 C18.23795566 12.57000672 17.01350461 12.00926787 13.8125 9.8125 C12.93851562 9.13574219 12.93851562 9.13574219 12.046875 8.4453125 C8.30718753 5.80469348 4.12892821 3.95231012 0 2 C0 1.34 0 0.68 0 0 Z " fill="#D9F8FB" transform="translate(348,753)"/>
<path d="M0 0 C3.21524305 1.40844718 5.32183868 3.10344786 7.75 5.625 C8.67039062 6.57246094 8.67039062 6.57246094 9.609375 7.5390625 C10.29773438 8.26222656 10.29773438 8.26222656 11 9 C10.67 9.66 10.34 10.32 10 11 C8.02 9.35 6.04 7.7 4 6 C4 7.98 4 9.96 4 12 C1.78600697 8.20458337 0.99019802 4.24370579 0 0 Z " fill="#91E2B5" transform="translate(581,314)"/>
<path d="M0 0 C0.33 0.99 0.66 1.98 1 3 C0.48050781 3.43570312 -0.03898437 3.87140625 -0.57421875 4.3203125 C-4.83222666 7.95654106 -8.55472652 11.58574336 -12 16 C-12 11.92092669 -10.43302134 10.94256832 -7.6875 8 C-6.48673828 6.700625 -6.48673828 6.700625 -5.26171875 5.375 C-3.53053313 3.55710561 -1.78926671 1.76031418 0 0 Z " fill="#E7FDFB" transform="translate(477,428)"/>
<path d="M0 0 C6.12352638 4.51567309 12.0805035 9.22073438 18 14 C17.01 14.33 16.02 14.66 15 15 C12.65970155 13.34539409 10.57950638 11.69529769 8.4375 9.8125 C7.84775391 9.31685547 7.25800781 8.82121094 6.65039062 8.31054688 C3.73029389 5.79574229 1.35692932 3.71603519 0 0 Z " fill="#E1FCFD" transform="translate(313,726)"/>
<path d="M0 0 C1.32 0.33 2.64 0.66 4 1 C4 1.66 4 2.32 4 3 C4.87591797 3.39251953 4.87591797 3.39251953 5.76953125 3.79296875 C10.32083707 6.2559346 14.35297081 9.97264189 15.9375 14.9375 C15.958125 15.618125 15.97875 16.29875 16 17 C15.484375 16.319375 14.96875 15.63875 14.4375 14.9375 C11.49707981 11.39391669 8.28576931 8.21976056 5 5 C4.01960861 4.02205959 3.04027679 3.04305457 2.0625 2.0625 C1.381875 1.381875 0.70125 0.70125 0 0 Z " fill="#E3FDFD" transform="translate(512,444)"/>
<path d="M0 0 C2 2 2 2 2.125 4.625 C2.08375 5.40875 2.0425 6.1925 2 7 C2.66 7 3.32 7 4 7 C5.53166168 11.08443115 4.63081652 14.79455657 4 19 C3.67 19 3.34 19 3 19 C2.30314688 16.02294042 1.61909815 13.04308598 0.9375 10.0625 C0.73833984 9.21236328 0.53917969 8.36222656 0.33398438 7.48632812 C0.15029297 6.67744141 -0.03339844 5.86855469 -0.22265625 5.03515625 C-0.39547119 4.2862915 -0.56828613 3.53742676 -0.74633789 2.76586914 C-0.87190063 1.89176392 -0.87190063 1.89176392 -1 1 C-0.67 0.67 -0.34 0.34 0 0 Z " fill="#6DC79E" transform="translate(627,341)"/>
<path d="M0 0 C0.33 0.66 0.66 1.32 1 2 C0.52949219 2.59167969 0.05898438 3.18335938 -0.42578125 3.79296875 C-4.33032711 8.72802705 -4.33032711 8.72802705 -7.75 14 C-9 16 -9 16 -12 17 C-10.64340201 13.00086217 -8.87434915 10.45013089 -6 7.375 C-3.75561506 4.95733534 -1.83557682 2.75336523 0 0 Z " fill="#E1FCFC" transform="translate(475,583)"/>
<path d="M0 0 C0.99 0.66 1.98 1.32 3 2 C1.54601271 3.81598825 0.08667675 5.62769519 -1.375 7.4375 C-2.59316406 8.95150391 -2.59316406 8.95150391 -3.8359375 10.49609375 C-6 13 -6 13 -8 14 C-6.66786942 10.4134946 -5.23083941 7.12317517 -3 4 C-2.01 4 -1.02 4 0 4 C0 2.68 0 1.36 0 0 Z " fill="#4FAAC5" transform="translate(473,581)"/>
<path d="M0 0 C0.33 0.99 0.66 1.98 1 3 C-1.97 6.3 -4.94 9.6 -8 13 C-8.99 12.67 -9.98 12.34 -11 12 C-10.45730469 11.46890625 -9.91460938 10.9378125 -9.35546875 10.390625 C-8.64003906 9.68421875 -7.92460938 8.9778125 -7.1875 8.25 C-6.47980469 7.55390625 -5.77210938 6.8578125 -5.04296875 6.140625 C-3.17724121 4.18571355 -1.56830358 2.19661447 0 0 Z " fill="#E5FEF2" transform="translate(724,694)"/>
<path d="M0 0 C3.3797085 3.52429496 3.50006908 6.96686153 3.625 11.625 C3.63033711 16.46020606 3.63033711 16.46020606 5 21 C4.34 21 3.68 21 3 21 C2.67 21.66 2.34 22.32 2 23 C1.93941406 21.85660156 1.87882813 20.71320312 1.81640625 19.53515625 C1.73201572 18.04425695 1.64736698 16.55337225 1.5625 15.0625 C1.52318359 14.30775391 1.48386719 13.55300781 1.44335938 12.77539062 C1.55961976 9.08055813 1.55961976 9.08055813 0 6 C-0.04080783 4.00041636 -0.04254356 1.99954746 0 0 Z " fill="#4AA692" transform="translate(568,657)"/>
<path d="M0 0 C0.66 0.33 1.32 0.66 2 1 C0.42040347 2.29623379 -1.16383413 3.58681327 -2.75 4.875 C-3.63171875 5.59429687 -4.5134375 6.31359375 -5.421875 7.0546875 C-7.58176924 8.68442588 -9.539766 9.90784005 -12 11 C-11.25 8.0625 -11.25 8.0625 -10 5 C-8.25 4.375 -8.25 4.375 -6 4 C-3.97048465 2.71203834 -1.96498322 1.38442 0 0 Z " fill="#E4FDFB" transform="translate(500,439)"/>
<path d="M0 0 C3.14093249 2.54980193 3.81247177 5.06780441 4.75 8.9375 C5.01296875 9.97777344 5.2759375 11.01804687 5.546875 12.08984375 C5.97748079 14.8553723 5.927004 16.40063066 5 19 C4.15919981 16.58570231 3.32718598 14.16896007 2.5 11.75 C2.14228516 10.72712891 2.14228516 10.72712891 1.77734375 9.68359375 C0.60578713 6.23586997 0 3.68297096 0 0 Z " fill="#DCF8FB" transform="translate(442,715)"/>
<path d="M0 0 C4.08371057 3.6125132 7.53618364 8.13508261 10 13 C9.67 13.99 9.34 14.98 9 16 C1.33257403 5.62642369 1.33257403 5.62642369 0 0 Z " fill="#40A2C3" transform="translate(435,569)"/>
<path d="M0 0 C1.65 0 3.3 0 5 0 C3.25 3.875 3.25 3.875 1 5 C-4.42307692 5.46153846 -4.42307692 5.46153846 -6.875 3.5 C-7.24625 3.005 -7.6175 2.51 -8 2 C-5.36 2.33 -2.72 2.66 0 3 C0 2.01 0 1.02 0 0 Z " fill="#DFEDEE" transform="translate(344,336)"/>
<path d="M0 0 C4.69165109 2.97519337 8.84703191 6.31393365 13 10 C12.01 10.495 12.01 10.495 11 11 C7.95139986 9.98379995 7.13333078 9.22608429 5 7 C4.34 6.67 3.68 6.34 3 6 C3 5.01 3 4.02 3 3 C2.01 2.67 1.02 2.34 0 2 C0 1.34 0 0.68 0 0 Z " fill="#74CBA6" transform="translate(683,294)"/>
<path d="M0 0 C4.14298667 0.59834725 7.18194377 2.00664285 10.8125 4.0625 C11.78832031 4.61035156 12.76414062 5.15820312 13.76953125 5.72265625 C14.50558594 6.14417969 15.24164062 6.56570313 16 7 C14.125 7.5859375 14.125 7.5859375 12 8 C10 6.625 10 6.625 8 5 C7.34 4.855625 6.68 4.71125 6 4.5625 C3.22052609 3.78077296 1.9019163 2.10569305 0 0 Z " fill="#77CEA8" transform="translate(625,259)"/>
<path d="M0 0 C0.43570312 0.37511719 0.87140625 0.75023437 1.3203125 1.13671875 C5.18607599 4.45859777 9.07657648 7.74642927 13 11 C12.01 11.495 12.01 11.495 11 12 C6.82154297 9.37631768 3.27493458 6.75654261 0 3 C0 2.01 0 1.02 0 0 Z " fill="#DBF9FC" transform="translate(300,714)"/>
<path d="M0 0 C0.66 0.33 1.32 0.66 2 1 C2.625 3.5625 2.625 3.5625 3 6 C3.66 6 4.32 6 5 6 C5.66 8.64 6.32 11.28 7 14 C4.71315977 11.84767979 2.94963331 9.63943055 1.25 7 C0.80140625 6.319375 0.3528125 5.63875 -0.109375 4.9375 C-1 3 -1 3 0 0 Z " fill="#57B090" transform="translate(547,600)"/>
<path d="M0 0 C1.98 1.32 3.96 2.64 6 4 C3 5 3 5 -1 5 C-2.34164079 5.2981424 -3.67851173 5.62243192 -5 6 C-2.25 1.125 -2.25 1.125 0 0 Z " fill="#4FADCC" transform="translate(503,589)"/>
<path d="M0 0 C0.99 0.33 1.98 0.66 3 1 C2.37609375 1.38800781 1.7521875 1.77601563 1.109375 2.17578125 C-1.45368285 4.39235165 -1.90678545 5.94112399 -2.75 9.1875 C-2.99234375 10.08855469 -3.2346875 10.98960937 -3.484375 11.91796875 C-3.65453125 12.60503906 -3.8246875 13.29210937 -4 14 C-4.66 13.67 -5.32 13.34 -6 13 C-5.57674417 11.20491499 -5.13589265 9.4139717 -4.6875 7.625 C-4.44386719 6.62726562 -4.20023438 5.62953125 -3.94921875 4.6015625 C-3 2 -3 2 0 0 Z " fill="#5CB599" transform="translate(567,717)"/>
<path d="M0 0 C1.98 0.66 3.96 1.32 6 2 C6 2.99 6 3.98 6 5 C3.5 7.1875 3.5 7.1875 1 9 C1.875 4.25 1.875 4.25 3 2 C2.01 2 1.02 2 0 2 C0 1.34 0 0.68 0 0 Z " fill="#6FC6D4" transform="translate(470,425)"/>
<path d="M0 0 C0.66 0.33 1.32 0.66 2 1 C0.8553125 1.86625 0.8553125 1.86625 -0.3125 2.75 C-3.02153392 4.8032583 -3.02153392 4.8032583 -4.5 7.25 C-6 9 -6 9 -8.6875 9.25 C-9.450625 9.1675 -10.21375 9.085 -11 9 C-7.56638098 5.36440339 -4.2026393 2.63886654 0 0 Z " fill="#E7EFEC" transform="translate(425,286)"/>
<path d="M0 0 C0.66 0.33 1.32 0.66 2 1 C1.01 2.32 0.02 3.64 -1 5 C1.97 5 4.94 5 8 5 C8 5.33 8 5.66 8 6 C3.38 6 -1.24 6 -6 6 C-4 4 -2 2 0 0 Z " fill="#78B3A0" transform="translate(520,788)"/>
<path d="M0 0 C0.66 0.33 1.32 0.66 2 1 C0.71451591 2.33929505 -0.57858155 3.67128643 -1.875 5 C-2.59429688 5.7425 -3.31359375 6.485 -4.0546875 7.25 C-6 9 -6 9 -8 9 C-7.8125 7.125 -7.8125 7.125 -7 5 C-4.4375 3.75 -4.4375 3.75 -2 3 C-2 2.34 -2 1.68 -2 1 C-1.34 0.67 -0.68 0.34 0 0 Z " fill="#9EF1C8" transform="translate(733,631)"/>
<path d="M0 0 C0.33 0.66 0.66 1.32 1 2 C-2.06093224 5.93548431 -4.49115974 8.68116787 -9 11 C-7.59155282 7.78475695 -5.89655214 5.67816132 -3.375 3.25 C-2.74335938 2.63640625 -2.11171875 2.0228125 -1.4609375 1.390625 C-0.73777344 0.70226562 -0.73777344 0.70226562 0 0 Z " fill="#40A5C1" transform="translate(497,595)"/>
<path d="M0 0 C0.33 0 0.66 0 1 0 C1.1875 2.3125 1.1875 2.3125 1 5 C-0.3125 6.5 -0.3125 6.5 -2 8 C-3.03357147 9.64605826 -4.04060332 11.30963442 -5 13 C-5.33 12.34 -5.66 11.68 -6 11 C-4.78515625 8.3984375 -4.78515625 8.3984375 -3.0625 5.375 C-2.21365234 3.87066406 -2.21365234 3.87066406 -1.34765625 2.3359375 C-0.90292969 1.56507813 -0.45820312 0.79421875 0 0 Z " fill="#A3F1CE" transform="translate(578,671)"/>
<path d="M0 0 C8.18181818 3.18181818 8.18181818 3.18181818 11 6 C11 6.99 11 7.98 11 9 C9.16384919 7.69144447 7.33114211 6.37805538 5.5 5.0625 C4.4790625 4.33160156 3.458125 3.60070312 2.40625 2.84765625 C1.6121875 2.23792969 0.818125 1.62820313 0 1 C0 0.67 0 0.34 0 0 Z " fill="#73C9A1" transform="translate(582,286)"/>
<path d="M0 0 C-0.33 0.99 -0.66 1.98 -1 3 C-1.99 3 -2.98 3 -4 3 C-4 3.66 -4 4.32 -4 5 C-7.47307692 7.10865385 -7.47307692 7.10865385 -10.140625 6.55859375 C-11.06101562 6.28208984 -11.06101562 6.28208984 -12 6 C-10.37829621 4.99466333 -8.75252763 3.99588093 -7.125 3 C-5.76761719 2.1646875 -5.76761719 2.1646875 -4.3828125 1.3125 C-2 0 -2 0 0 0 Z " fill="#DFFAEE" transform="translate(656,754)"/>
<path d="M0 0 C0.33 0.66 0.66 1.32 1 2 C-3.18586481 5.18923033 -5.70558305 6.50423019 -11 6 C-7.58983503 3.13546142 -4.09305456 1.65296434 0 0 Z " fill="#A0F0C8" transform="translate(644,618)"/>
<path d="M0 0 C0.33 0.66 0.66 1.32 1 2 C0.360625 2.94875 -0.27875 3.8975 -0.9375 4.875 C-2.92620563 7.75287827 -2.92620563 7.75287827 -4 10 C-4.66 9.34 -5.32 8.68 -6 8 C-6 5 -6 5 -4.6875 3.61328125 C-3.125 2.40885417 -1.5625 1.20442708 0 0 Z " fill="#67BF99" transform="translate(527,567)"/>
<path d="M0 0 C2.0625 0.4375 2.0625 0.4375 4 1 C2.56705502 1.84114171 1.12845595 2.67265687 -0.3125 3.5 C-1.51326172 4.19609375 -1.51326172 4.19609375 -2.73828125 4.90625 C-5 6 -5 6 -8 6 C-8 5.34 -8 4.68 -8 4 C-6.865625 3.525625 -5.73125 3.05125 -4.5625 2.5625 C-1.24259834 1.36377917 -1.24259834 1.36377917 0 0 Z " fill="#E3FDFC" transform="translate(382,389)"/>
<path d="M0 0 C0 3.77910478 -0.99703962 4.46106101 -3.5 7.1875 C-4.1496875 7.90292969 -4.799375 8.61835937 -5.46875 9.35546875 C-5.9740625 9.89816406 -6.479375 10.44085937 -7 11 C-7.66 10.67 -8.32 10.34 -9 10 C-6.03 6.7 -3.06 3.4 0 0 Z " fill="#A3EECB" transform="translate(593,652)"/>
<path d="M0 0 C0.99 0.33 1.98 0.66 3 1 C0 4 -3 7 -6 10 C-5.49396008 7.83125748 -5.00016187 6.00032373 -4 4 C-3.34 4 -2.68 4 -2 4 C-1.34 2.68 -0.68 1.36 0 0 Z " fill="#DBFBFD" transform="translate(493,596)"/>
<path d="M0 0 C3.11954738 0.33724836 4.6209965 0.6209965 6.875 2.875 C7.24625 3.57625 7.6175 4.2775 8 5 C7.67 5.99 7.34 6.98 7 8 C5.83035398 6.8572081 4.66435444 5.71068285 3.5 4.5625 C2.8503125 3.92441406 2.200625 3.28632812 1.53125 2.62890625 C0 1 0 1 0 0 Z " fill="#DAF5FC" transform="translate(474,776)"/>
<path d="M0 0 C-3.96 3.465 -3.96 3.465 -8 7 C-8.33 6.01 -8.66 5.02 -9 4 C-8.34 3.67 -7.68 3.34 -7 3 C-6.67 2.01 -6.34 1.02 -6 0 C-3 -1 -3 -1 0 0 Z " fill="#68C1D4" transform="translate(514,548)"/>
<path d="M0 0 C0.33 0 0.66 0 1 0 C1.36540804 4.50669915 1.36540804 4.50669915 -0.25 6.6875 C-2.1346996 8.1010247 -3.78958468 9.17109426 -6 10 C-6.99 9.67 -7.98 9.34 -9 9 C-8.43410156 8.68546875 -7.86820312 8.3709375 -7.28515625 8.046875 C-6.55167969 7.61890625 -5.81820313 7.1909375 -5.0625 6.75 C-4.33160156 6.33234375 -3.60070312 5.9146875 -2.84765625 5.484375 C-0.68142682 3.74406383 -0.36405249 2.70438996 0 0 Z " fill="#E2EEEE" transform="translate(355,417)"/>
<path d="M0 0 C0 3.97054597 -1.3139381 5.16471244 -4 8 C-6.25 8.8125 -6.25 8.8125 -8 9 C-7.67 8.34 -7.34 7.68 -7 7 C-6.34 7 -5.68 7 -5 7 C-4.731875 6.401875 -4.46375 5.80375 -4.1875 5.1875 C-3.01506533 3.02775192 -1.80630718 1.64209744 0 0 Z " fill="#D9FAED" transform="translate(712,707)"/>
<path d="M0 0 C3.09592835 3.5087188 4.74194623 6.49197399 6 11 C5.01 10.67 4.02 10.34 3 10 C3 8.68 3 7.36 3 6 C2.34 6 1.68 6 1 6 C0.67 4.02 0.34 2.04 0 0 Z " fill="#DDFAFB" transform="translate(250,648)"/>
<path d="M0 0 C0.66 0.33 1.32 0.66 2 1 C0.02 3.97 -1.96 6.94 -4 10 C-5 7 -5 7 -4.25 4.4375 C-3 2 -3 2 0 0 Z " fill="#53A7BE" transform="translate(463,596)"/>
<path d="M0 0 C-1 2 -1 2 -2.8125 2.875 C-5.38820998 4.19965085 -7.03454804 5.89415861 -9 8 C-8.8125 5.6875 -8.8125 5.6875 -8 3 C-5.10451959 0.79029126 -3.66842255 0 0 0 Z " fill="#D8F7FA" transform="translate(505,588)"/>
<path d="M0 0 C-0.33 0.66 -0.66 1.32 -1 2 C-4.63 2 -8.26 2 -12 2 C-4.86956522 -1.56521739 -4.86956522 -1.56521739 0 0 Z " fill="#A3EDCE" transform="translate(781,585)"/>
<path d="M0 0 C0 3 0 3 -2.3125 5.6875 C-5 8 -5 8 -8 8 C-5.36 5.36 -2.72 2.72 0 0 Z " fill="#DCF9FD" transform="translate(484,574)"/>
<path d="M0 0 C7.75 0.875 7.75 0.875 10 2 C9.67 2.99 9.34 3.98 9 5 C4.545 3.02 4.545 3.02 0 1 C0 0.67 0 0.34 0 0 Z " fill="#E7FDEC" transform="translate(624,391)"/>
<path d="M0 0 C2.61500768 2.36595933 4.38999603 4.86049226 6 8 C5.67 8.66 5.34 9.32 5 10 C0 4.5 0 4.5 0 0 Z " fill="#DCFAFB" transform="translate(473,736)"/>
<path d="M0 0 C0.66 0 1.32 0 2 0 C2.33 0.99 2.66 1.98 3 3 C4.62652316 4.70586575 6.29006566 6.3777546 8 8 C7.01 8 6.02 8 5 8 C0 2.65116279 0 2.65116279 0 0 Z " fill="#72C79F" transform="translate(633,368)"/>
<path d="M0 0 C3.16115776 1.36983503 3.9927092 1.9890638 6 5 C5.34 5 4.68 5 4 5 C3.01 6.485 3.01 6.485 2 8 C1.34 5.36 0.68 2.72 0 0 Z " fill="#9EE1BB" transform="translate(581,314)"/>
<path d="M0 0 C0.95465783 2.16967689 1.14401212 3.56328793 0.3984375 5.82421875 C-0.35870385 7.5684743 -1.17609198 9.28627131 -2 11 C-2.33 11 -2.66 11 -3 11 C-3.32613618 6.32538149 -2.70582788 3.83325617 0 0 Z " fill="#70C4D6" transform="translate(370,448)"/>
<path d="M0 0 C0.66 0.33 1.32 0.66 2 1 C1.49396008 3.16874252 1.00016187 4.99967627 0 7 C-2 5.625 -2 5.625 -4 4 C-4 3.34 -4 2.68 -4 2 C-2.125 0.9375 -2.125 0.9375 0 0 Z " fill="#8FDAB2" transform="translate(533,425)"/>
<path d="M0 0 C2.27521866 2.16687491 4.15794162 4.45620509 6 7 C5.67 7.66 5.34 8.32 5 9 C3.0625 7.875 3.0625 7.875 1 6 C0.25 2.8125 0.25 2.8125 0 0 Z " fill="#6EC7DA" transform="translate(432,388)"/>
<path d="M0 0 C0.99 0.33 1.98 0.66 3 1 C1.35 2.65 -0.3 4.3 -2 6 C-2.99 5.67 -3.98 5.34 -5 5 C-3.35 3.35 -1.7 1.7 0 0 Z " fill="#304E5E" transform="translate(290,323)"/>
<path d="M0 0 C2.74146784 2.74146784 4.21293716 5.54912004 6 9 C5.67 9.66 5.34 10.32 5 11 C3.02 8.03 1.04 5.06 -1 2 C-0.67 1.34 -0.34 0.68 0 0 Z " fill="#70CBA1" transform="translate(611,310)"/>
<path d="M0 0 C3.7952131 1.49097658 5.61042731 3.75700849 8 7 C7.01 7 6.02 7 5 7 C5 6.34 5 5.68 5 5 C4.01 4.67 3.02 4.34 2 4 C0.8125 1.9375 0.8125 1.9375 0 0 Z " fill="#E5FEFD" transform="translate(281,696)"/>
<path d="M0 0 C0 3.69418201 -1.28179295 5.77836178 -3 9 C-3.66 9 -4.32 9 -5 9 C-3.90931332 5.22454612 -3.0916909 2.52956528 0 0 Z " fill="#E5FEEC" transform="translate(634,404)"/>
<path d="M0 0 C0.33 0.66 0.66 1.32 1 2 C0.22265625 3.7265625 0.22265625 3.7265625 -0.9375 5.625 C-1.618125 6.73875 -2.29875 7.8525 -3 9 C-3.66 9 -4.32 9 -5 9 C-3.7508258 5.54074837 -2.32472205 2.85306797 0 0 Z " fill="#DEEBE9" transform="translate(395,314)"/>
</svg>
